<svg width="34" height="40" viewBox="0 0 34 40" fill="none" xmlns="http://www.w3.org/2000/svg">
<path d="M17.4879 15.9816C17.4879 16.9389 18.2639 17.7148 19.2211 17.7148C20.1783 17.7148 20.9544 16.9389 20.9544 15.9816C20.9544 15.0243 20.1784 14.2483 19.2211 14.2483C18.2643 14.2493 17.4889 15.0247 17.4879 15.9816ZM21.6478 13.555C21.6487 14.3204 22.269 14.9407 23.0344 14.9416C23.8002 14.9416 24.421 14.3208 24.421 13.555C24.421 12.7892 23.8002 12.1684 23.0344 12.1684C22.2686 12.1684 21.6478 12.7892 21.6478 13.555ZM7.08479 8.73727C7.20049 8.71688 7.31754 8.70504 7.43498 8.70186C8.67806 8.70587 9.71626 9.65057 9.83721 10.8877C10.0707 10.8207 10.312 10.7851 10.5549 10.7817C11.8966 10.7845 13.0438 11.7476 13.2789 13.0685C13.6265 12.9344 13.9955 12.8643 14.3681 12.8616C14.8355 12.8633 15.2966 12.9705 15.7168 13.1754C16.137 13.3803 16.5054 13.6774 16.7946 14.0447C17.621 12.9767 19.0516 12.5795 20.3104 13.0685C20.5455 11.7476 21.6927 10.7845 23.0344 10.7817C23.2773 10.7851 23.5186 10.8207 23.7521 10.8877C23.873 9.65049 24.9111 8.70587 26.1543 8.70186C26.2718 8.70504 26.3888 8.71687 26.5045 8.73727C26.5043 8.72521 26.5009 8.71399 26.5009 8.70186C26.5033 8.35781 26.5921 8.01987 26.7591 7.71909C25.9007 6.80597 25.1364 5.80873 24.4778 4.74245L24.4494 4.70014V4.70052C24.1318 4.19099 23.8394 3.66625 23.573 3.12817C23.1884 3.38933 22.7707 3.59812 22.3309 3.74907C22.2834 3.77235 22.2332 3.78989 22.1816 3.80132C20.4346 4.32364 18.6176 4.5735 16.7946 4.54211C14.9717 4.5735 13.1548 4.32371 11.408 3.80155C11.3555 3.79002 11.3046 3.7722 11.2563 3.74847C10.8172 3.59765 10.4002 3.38908 10.0161 3.12825C9.74978 3.66634 9.45731 4.19108 9.13972 4.70059V4.70029L9.11128 4.7426C8.45277 5.8089 7.68851 6.80615 6.83008 7.71925C6.99704 8.02006 7.0858 8.35798 7.08821 8.70201C7.08836 8.71399 7.08494 8.72521 7.08479 8.73727ZM28.5808 9.39517C28.7647 9.39517 28.941 9.32213 29.071 9.1921C29.2011 9.06208 29.2741 8.88573 29.2741 8.70186C29.2739 8.51803 29.2008 8.34179 29.0708 8.21181C28.9409 8.08182 28.7646 8.00872 28.5808 8.00854C28.3969 8.00854 28.2206 8.08158 28.0905 8.21161C27.9605 8.34163 27.8875 8.51798 27.8875 8.70186C27.8875 8.88573 27.9605 9.06208 28.0905 9.1921C28.2206 9.32213 28.3969 9.39517 28.5808 9.39517ZM25.1143 11.1284C25.1149 11.7025 25.5801 12.1678 26.1542 12.1684C26.7286 12.1684 27.1942 11.7028 27.1942 11.1284C27.1942 10.5541 26.7286 10.0885 26.1542 10.0885C25.5799 10.0885 25.1143 10.5541 25.1143 11.1284Z" fill="#123449"/>
<path d="M16.7944 3.15552C20.8134 3.15552 22.892 2.16123 23.0321 1.76888C22.8919 1.37661 20.8134 0.382324 16.7944 0.382324C12.7388 0.382324 10.6596 1.39458 10.5532 1.77942C10.6596 2.14333 12.7387 3.15552 16.7944 3.15552ZM9.16797 13.5551C9.16797 14.3209 9.78879 14.9417 10.5546 14.9417C11.3204 14.9417 11.9412 14.3209 11.9412 13.5551C11.9412 12.7893 11.3204 12.1685 10.5546 12.1685C9.78917 12.1694 9.16888 12.7897 9.16797 13.5551Z" fill="#123449"/>
<path d="M14.937 33.0764C16.1404 33.4939 17.4494 33.4937 18.6527 33.0757C31.2283 28.6613 33.1328 14.8734 33.3949 11.983C32.1521 11.5878 30.9678 11.0278 29.8738 10.3179C29.5085 10.6161 29.0519 10.7799 28.5804 10.7819C28.5682 10.7819 28.557 10.7785 28.545 10.7783C28.5653 10.894 28.5772 11.0111 28.5804 11.1286C28.5788 12.468 27.4933 13.5536 26.1538 13.5551C26.0364 13.552 25.9193 13.5401 25.8036 13.5197C25.8038 13.5319 25.8072 13.543 25.8072 13.5551C25.8056 15.0861 24.5649 16.3267 23.034 16.3283C22.7911 16.325 22.5498 16.2894 22.3163 16.2223C22.2726 16.8461 22.041 17.442 21.6521 17.9315C21.2631 18.4211 20.735 18.7814 20.1372 18.965C19.5395 19.1486 18.9002 19.1469 18.3035 18.9601C17.7068 18.7732 17.1806 18.4101 16.7943 17.9184C16.408 18.4101 15.8818 18.7733 15.2851 18.9602C14.6884 19.147 14.049 19.1487 13.4513 18.9651C12.8535 18.7815 12.3254 18.4212 11.9364 17.9316C11.5475 17.442 11.3159 16.8461 11.2722 16.2223C11.0388 16.2893 10.7974 16.325 10.5546 16.3283C9.02364 16.3267 7.78298 15.086 7.78139 13.5551C7.78139 13.543 7.7848 13.5319 7.78495 13.5197C7.66924 13.5401 7.55216 13.552 7.43477 13.5551C6.0953 13.5536 5.00979 12.468 5.0082 11.1286C5.01138 11.0111 5.02321 10.894 5.04354 10.7783C5.03155 10.7785 5.02033 10.7819 5.0082 10.7819C4.53667 10.7798 4.08013 10.616 3.71484 10.3179C2.62101 11.0277 1.43696 11.5877 0.194336 11.983C0.459515 14.8744 2.37825 28.6677 14.937 33.0764ZM22.0793 37.6332C22.1266 37.8095 22.1025 37.9973 22.0123 38.1559C21.922 38.3146 21.7728 38.4313 21.5971 38.4806C21.4214 38.53 21.2333 38.5081 21.0736 38.4197C20.9139 38.3313 20.7955 38.1835 20.7441 38.0083C20.3448 36.5808 20.3931 35.0652 20.8824 33.666C20.3124 33.9227 19.7279 34.1676 19.1104 34.3844C17.6107 34.905 15.9793 34.9053 14.4794 34.3851C13.8614 34.1682 13.2764 33.9231 12.7061 33.6661C13.1954 35.0653 13.2436 36.5809 12.8444 38.0084C12.8118 38.126 12.7488 38.2329 12.6617 38.3184C12.5746 38.4038 12.4665 38.4648 12.3483 38.4951C12.2301 38.5254 12.106 38.5239 11.9885 38.4909C11.8711 38.4579 11.7644 38.3944 11.6793 38.307C11.5942 38.2196 11.5336 38.1113 11.5038 37.993C11.4739 37.8747 11.4757 37.7507 11.5091 37.6333C11.597 37.3194 11.6581 36.9985 11.6917 36.6741C8.3806 36.9948 6.94331 37.5371 6.50501 37.8243C7.28698 38.3568 10.7589 39.2074 16.7942 39.2074C22.8295 39.2074 26.3014 38.3567 27.0835 37.8241C26.6451 37.5369 25.2075 36.9945 21.8955 36.6739C21.9298 36.9983 21.9912 37.3191 22.0793 37.6332Z" fill="#123449"/>
<path d="M7.43434 12.1687C8.00868 12.1687 8.47428 11.7031 8.47428 11.1288C8.47428 10.5544 8.00868 10.0888 7.43434 10.0888C6.86023 10.0894 6.39501 10.5547 6.3944 11.1288C6.3944 11.703 6.86 12.1687 7.43434 12.1687ZM12.6341 15.9818C12.6341 16.9391 13.4102 17.7151 14.3674 17.7151C15.3246 17.7151 16.1006 16.9391 16.1006 15.9818C16.1006 15.0245 15.3246 14.2486 14.3674 14.2486C13.4105 14.2495 12.6352 15.025 12.6341 15.9818ZM5.00777 9.39542C5.19165 9.39542 5.368 9.32238 5.49802 9.19235C5.62804 9.06233 5.70109 8.88598 5.70109 8.70211C5.70109 8.51823 5.62804 8.34188 5.49802 8.21186C5.368 8.08183 5.19165 8.00879 5.00777 8.00879C4.82395 8.00899 4.64772 8.0821 4.51774 8.21208C4.38776 8.34206 4.31465 8.51829 4.31445 8.70211C4.31445 8.88598 4.3875 9.06233 4.51752 9.19235C4.64754 9.32238 4.82389 9.39542 5.00777 9.39542Z" fill="#123449"/>
</svg>
