<svg width="35" height="34" viewBox="0 0 35 34" fill="none" xmlns="http://www.w3.org/2000/svg">
<path d="M10.5962 8.4597V2.21674L1.266 11.2254C1.85141 11.4723 5.75819 13.129 5.75819 13.129L10.5962 8.4597ZM5.30078 14.2058C4.54248 13.8983 0.808594 12.3022 0.808594 12.3022V22.939C1.39158 22.6879 5.30078 21.0354 5.30078 21.0354V14.2058ZM17.0563 20.7309C17.0563 20.7309 20.9667 22.6709 21.5491 22.9627V12.3022C20.9649 12.5533 17.0563 14.2058 17.0563 14.2058V20.7309ZM16.7991 21.9144L11.7676 26.77C11.7737 28.5578 11.7627 31.2422 11.7676 33.0136L21.0747 24.0346C21.0747 24.0346 17.5107 22.2742 16.7991 21.9144ZM5.75819 22.1134C5.75819 22.1134 1.85141 23.7671 1.27146 24.017L10.5956 33.0196C10.5943 32.2061 10.5956 26.7755 10.5956 26.7755L5.75819 22.1134ZM11.7676 8.46577L16.5995 13.1284C16.5995 13.1284 20.337 11.5499 21.0923 11.2248C21.1093 11.2351 13.8199 4.20471 11.7676 2.2222C11.7627 3.98874 11.7712 6.68102 11.7676 8.46577ZM15.8849 14.0657L11.1816 9.52618L6.47282 14.0657V21.1761L11.1816 25.7157L15.8849 21.1761V14.0657ZM30.2823 12.5606V19.079C31.1195 19.4945 33.995 20.9214 34.7806 21.3169V10.6557L30.2823 12.5606ZM29.1109 12.4138L24.407 7.88036L21.8591 10.3342C22.1133 10.5151 22.3229 10.7516 22.4721 11.0256C22.6213 11.2996 22.706 11.6041 22.7199 11.9157V22.4295L24.4064 24.0577L29.1103 19.5243L29.1109 12.4138ZM23.8216 6.81995V0.576379L17.7831 6.40439C18.3412 6.94431 20.4201 8.94623 21.0165 9.52011L23.8216 6.81995ZM23.8216 25.399C23.8155 25.405 22.1897 24.5667 22.1873 24.5909L19.4932 27.1916L23.8216 31.3677V25.399ZM24.993 6.81449L29.831 11.4765L34.3177 9.57289L24.9936 0.570312L24.993 6.81449ZM24.993 25.1242V31.3738L34.3001 22.3821C33.5679 22.0218 30.8174 20.655 30.036 20.2674L24.993 25.1242Z" fill="#123449"/>
</svg>
