<svg width="40" height="40" viewBox="0 0 40 40" fill="none" xmlns="http://www.w3.org/2000/svg">
<g clip-path="url(#clip0_842_133)">
<path d="M27.94 4.26471L24.6458 0.970459H22.2927L23.4104 4.26471H27.94ZM22.1162 5.44123H17.2925L19.7044 12.618L22.1162 5.44123ZM27.94 5.44123H23.4104L21.1162 12.265L27.94 5.44123ZM20.9986 0.970459H18.4102L17.2925 4.26471H22.1162L20.9986 0.970459ZM15.9983 5.44123H11.4688L18.2926 12.265L15.9983 5.44123ZM17.116 0.970459H14.763L11.4688 4.26471H15.9983L17.116 0.970459Z" fill="#123449"/>
<path d="M25.8809 9.20605L22.5278 12.5591C27.4104 13.8533 30.7634 18.2064 30.7634 23.2655C30.7634 29.3834 25.8221 34.3836 19.7042 34.3836C13.5863 34.3836 8.58606 29.3834 8.58606 23.2655C8.58606 18.2064 11.9391 13.8533 16.8217 12.5591L13.5274 9.20605C7.9978 11.6767 4.35059 17.2064 4.35059 23.2655C4.35059 31.7364 11.2332 38.619 19.7042 38.619C28.1751 38.619 35.0577 31.7364 35.0577 23.2655C35.0577 17.2064 31.4105 11.6767 25.8809 9.20605Z" fill="#123449"/>
</g>
<defs>
<clipPath id="clip0_842_133">
<rect width="38.8251" height="38.8251" fill="white" transform="translate(0.291992 0.382324)"/>
</clipPath>
</defs>
</svg>
