<svg width="40" height="36" viewBox="0 0 40 36" fill="none" xmlns="http://www.w3.org/2000/svg">
    <path
        d="M19.7944 30.6905L25.7548 10.9738H13.834L19.7944 30.6905ZM18.7141 34.9172L11.476 10.9738H0.381836L18.78 35.1214C18.78 35.1214 18.7359 34.989 18.7141 34.9172ZM20.8088 35.1214L39.207 10.9738H28.1128L20.8747 34.9172C20.8529 34.989 20.8088 35.1214 20.8088 35.1214ZM13.6494 8.71671H25.9394L23.9328 0.468262H15.656L13.6494 8.71671ZM28.2623 8.71671H39.207L33.2611 0.912855C33.1558 0.774651 33.02 0.662627 32.8643 0.585511C32.7086 0.508395 32.5372 0.46827 32.3634 0.468262H26.2557L28.2623 8.71671ZM11.3265 8.71671L13.3331 0.468262H7.22537C7.05161 0.468247 6.8802 0.508362 6.72449 0.585479C6.56878 0.662597 6.43299 0.774633 6.32769 0.912855L0.381836 8.71671H11.3265Z"
        fill="currentColor" />
</svg>