<svg width="452" height="165" viewBox="0 0 452 165" fill="none" xmlns="http://www.w3.org/2000/svg">
<g filter="url(#filter0_d_500_1200)">
<path d="M78.2088 122.005L99.1339 101.125H81.7523L69.5203 113.331L57.2883 101.125H39.9067L60.8272 122.005L69.5203 130.679L78.2088 122.005Z" fill="#123449"/>
<path d="M94.0397 88.8631H111.421L123.719 76.5923H106.332H32.7023L20.4096 64.3308H118.625H118.779H136.011H136.165L136.091 64.2516L127.398 55.5772L123.873 52.0646L111.58 39.7938L99.2874 27.5322H81.9011H57.2597H39.8781L27.5854 39.7938H44.9716H94.1938L106.491 52.0646H32.6743H15.2927L11.7025 55.6424L3.01401 64.3168L3 64.3308L11.7025 72.9912L15.3207 76.5923L27.6134 88.8631H44.9997H94.0397Z" fill="#123449"/>
<path d="M69.4824 148L153.435 64.2331L104.362 15.2662H69.5851L92.0696 3H109.456L121.744 15.2662L162.124 55.5587L170.817 64.2331" fill="#123449"/>
<path d="M204.305 102.476C207.707 100.531 210.867 98.1931 213.722 95.5114C217.363 92.1353 220.823 88.5695 224.087 84.8291C227.741 80.6829 231.692 76.1315 235.94 71.1747L255.862 48.4592V32.3496H188.38V44.6717H247.057V45.8876C244.183 45.9548 241.368 46.7207 238.858 48.1191C235.504 49.9664 232.371 52.1889 229.521 54.7437C225.627 58.1738 221.94 61.831 218.479 65.6961C214.502 70.069 210.074 75.1407 205.197 80.9112L186.228 102.411V118.632H255.862V106.329H195.169V104.978C198.378 104.937 201.524 104.076 204.305 102.476Z" fill="#123449"/>
<path d="M332.555 32.3496L300.986 116.205H300.052C300.774 113.323 301.339 110.663 301.747 108.225C302.146 105.879 302.372 103.508 302.424 101.13C302.469 98.7961 302.288 96.4636 301.882 94.165C301.418 91.5945 300.761 89.0623 299.917 86.5901L279.304 32.3496H263.431L296.765 118.614H314.404L347.598 32.3496H332.555Z" fill="#123449"/>
<path d="M434.303 66.0828C433.904 63.2947 433.279 60.5434 432.436 57.8556C431.151 53.7271 429.139 49.8604 426.493 46.4373L426.418 46.3441C425.811 45.5739 425.175 44.8363 424.508 44.1313C420.751 40.2218 416.136 37.2363 411.025 35.4103C405.597 33.3699 399.223 32.3496 391.902 32.3496H358.979V43.9962H371.444V44.5366C363.134 44.5366 358.979 48.9996 358.979 57.9255V118.632H391.902C401.436 118.632 409.373 117.072 415.713 113.95C418.931 112.391 421.857 110.293 424.364 107.745C431.093 100.866 434.627 90.9645 434.966 78.0415C434.969 78.0364 434.97 78.0308 434.97 78.0252C434.97 78.0195 434.969 78.014 434.966 78.0089C434.966 77.3147 434.999 76.6113 434.999 75.9032C435.01 72.6171 434.777 69.3347 434.303 66.0828ZM415.162 96.9509C414.748 97.5534 414.309 98.1326 413.845 98.6886C412.445 100.378 410.769 101.819 408.887 102.951C404.592 105.576 398.977 106.888 392.042 106.888H373.227V43.9962H392.042C397.187 43.9962 401.59 44.7618 405.25 46.2929C406.343 46.7475 407.401 47.2816 408.415 47.8908C410.604 49.1839 412.539 50.8635 414.125 52.8476C415.368 54.4124 416.421 56.1185 417.263 57.9302C418.013 59.5366 418.619 61.2062 419.074 62.9196C420.157 67.1599 420.681 71.523 420.633 75.8985C420.633 76.602 420.633 77.2961 420.596 77.9716C420.332 85.7577 418.523 92.0842 415.171 96.9509H415.162Z" fill="#123449"/>
</g>
<defs>
<filter id="filter0_d_500_1200" x="0" y="0" width="452" height="165" filterUnits="userSpaceOnUse" color-interpolation-filters="sRGB">
<feFlood flood-opacity="0" result="BackgroundImageFix"/>
<feColorMatrix in="SourceAlpha" type="matrix" values="0 0 0 0 0 0 0 0 0 0 0 0 0 0 0 0 0 0 127 0" result="hardAlpha"/>
<feOffset dx="7" dy="7"/>
<feGaussianBlur stdDeviation="5"/>
<feComposite in2="hardAlpha" operator="out"/>
<feColorMatrix type="matrix" values="0 0 0 0 0 0 0 0 0 0 0 0 0 0 0 0 0 0 0.17 0"/>
<feBlend mode="normal" in2="BackgroundImageFix" result="effect1_dropShadow_500_1200"/>
<feBlend mode="normal" in="SourceGraphic" in2="effect1_dropShadow_500_1200" result="shape"/>
</filter>
</defs>
</svg>
