<svg width="1500" height="461" viewBox="0 0 1500 461" fill="none" xmlns="http://www.w3.org/2000/svg">
<path fill-rule="evenodd" clip-rule="evenodd" d="M1500 254.003L0 460.387V207.307L1500 0.92334V254.003Z" fill="#123449"/>
<path d="M642.828 192.552L643.028 194.102C643.303 196.233 643.272 198.18 642.935 199.943C642.597 201.707 641.989 203.249 641.109 204.57C640.242 205.89 639.133 206.959 637.781 207.776C636.428 208.581 634.879 209.096 633.136 209.321C631.405 209.544 629.783 209.438 628.27 209.003C626.768 208.554 625.417 207.802 624.218 206.749C623.019 205.696 622.019 204.361 621.22 202.744C620.434 201.126 619.903 199.251 619.628 197.12L619.428 195.571C619.153 193.44 619.192 191.499 619.543 189.746C619.893 187.981 620.508 186.438 621.388 185.117C622.279 183.781 623.395 182.712 624.736 181.908C626.087 181.091 627.629 180.57 629.359 180.347C631.102 180.122 632.732 180.234 634.247 180.682C635.76 181.117 637.111 181.868 638.299 182.936C639.485 183.99 640.465 185.328 641.239 186.948C642.023 188.553 642.553 190.422 642.828 192.552ZM638.166 194.729L637.961 193.141C637.758 191.565 637.424 190.197 636.959 189.036C636.505 187.86 635.929 186.904 635.23 186.167C634.542 185.416 633.746 184.888 632.84 184.585C631.933 184.269 630.943 184.18 629.871 184.318C628.799 184.456 627.871 184.793 627.087 185.327C626.301 185.849 625.664 186.561 625.177 187.464C624.7 188.353 624.386 189.424 624.232 190.678C624.077 191.919 624.101 193.327 624.305 194.902L624.509 196.491C624.713 198.066 625.048 199.441 625.514 200.615C625.981 201.789 626.565 202.757 627.267 203.52C627.981 204.268 628.785 204.801 629.679 205.119C630.572 205.424 631.554 205.507 632.626 205.369C633.711 205.229 634.646 204.898 635.432 204.377C636.217 203.843 636.846 203.125 637.321 202.223C637.794 201.309 638.1 200.225 638.241 198.973C638.394 197.719 638.369 196.305 638.166 194.729ZM661.117 200.296L659.051 184.276L663.739 183.672L666.442 204.631L662.026 205.2L661.117 200.296ZM661.214 195.852L662.778 195.611C662.959 197.019 662.972 198.337 662.815 199.565C662.657 200.78 662.311 201.868 661.779 202.83C661.245 203.778 660.506 204.563 659.562 205.183C658.616 205.791 657.44 206.186 656.032 206.367C655.012 206.499 654.056 206.471 653.166 206.284C652.275 206.097 651.48 205.734 650.78 205.194C650.093 204.652 649.518 203.906 649.054 202.955C648.59 202.004 648.269 200.837 648.09 199.455L646.344 185.915L651.012 185.313L652.764 198.892C652.862 199.654 653.035 200.282 653.282 200.775C653.528 201.255 653.826 201.63 654.176 201.9C654.526 202.17 654.916 202.343 655.345 202.419C655.775 202.495 656.223 202.503 656.688 202.443C658.018 202.271 659.03 201.878 659.726 201.263C660.432 200.634 660.89 199.853 661.097 198.92C661.318 197.985 661.357 196.963 661.214 195.852ZM673.726 186.44L675.915 203.409L671.246 204.011L668.543 183.052L672.998 182.477L673.726 186.44ZM679.605 181.487L680.126 185.831C679.835 185.816 679.52 185.817 679.181 185.835C678.855 185.851 678.531 185.879 678.208 185.921C677.407 186.024 676.718 186.231 676.141 186.542C675.563 186.84 675.094 187.228 674.736 187.708C674.389 188.173 674.144 188.716 674.001 189.339C673.858 189.961 673.815 190.643 673.871 191.384L672.816 191.599C672.646 190.282 672.618 189.045 672.731 187.888C672.844 186.731 673.104 185.693 673.511 184.774C673.93 183.854 674.503 183.104 675.229 182.524C675.968 181.943 676.861 181.585 677.907 181.45C678.191 181.413 678.498 181.4 678.827 181.41C679.17 181.418 679.429 181.444 679.605 181.487ZM711.07 189.54L715.912 188.915C715.996 190.782 715.691 192.495 715 194.054C714.307 195.601 713.219 196.89 711.737 197.922C710.256 198.953 708.378 199.615 706.105 199.908C704.362 200.133 702.753 200.026 701.278 199.586C699.802 199.133 698.493 198.396 697.35 197.375C696.206 196.341 695.263 195.038 694.522 193.466C693.794 191.893 693.299 190.092 693.038 188.065L692.735 185.721C692.474 183.694 692.502 181.826 692.82 180.117C693.151 178.407 693.745 176.906 694.602 175.614C695.458 174.309 696.549 173.256 697.877 172.454C699.218 171.651 700.773 171.135 702.542 170.907C704.789 170.617 706.74 170.786 708.397 171.412C710.053 172.039 711.401 173.027 712.442 174.376C713.495 175.724 714.241 177.328 714.677 179.188L709.835 179.813C709.549 178.616 709.131 177.613 708.58 176.804C708.042 175.994 707.325 175.417 706.427 175.073C705.528 174.717 704.4 174.626 703.044 174.801C701.933 174.944 700.992 175.276 700.218 175.795C699.445 176.315 698.833 177.011 698.381 177.884C697.929 178.756 697.636 179.798 697.504 181.01C697.382 182.207 697.418 183.555 697.612 185.053L697.919 187.435C698.102 188.856 698.392 190.131 698.787 191.262C699.193 192.378 699.708 193.316 700.331 194.076C700.967 194.834 701.721 195.387 702.593 195.734C703.465 196.081 704.469 196.181 705.606 196.034C706.987 195.856 708.076 195.492 708.872 194.943C709.68 194.393 710.25 193.669 710.581 192.773C710.923 191.863 711.086 190.785 711.07 189.54ZM718.836 187.455L718.778 187.009C718.583 185.498 718.622 184.069 718.895 182.721C719.165 181.36 719.652 180.148 720.356 179.086C721.07 178.009 721.994 177.129 723.126 176.444C724.27 175.745 725.604 175.298 727.128 175.101C728.665 174.903 730.069 174.997 731.34 175.385C732.622 175.758 733.745 176.374 734.709 177.235C735.672 178.082 736.457 179.13 737.064 180.377C737.67 181.612 738.07 182.985 738.265 184.496L738.323 184.941C738.517 186.452 738.479 187.882 738.206 189.23C737.934 190.578 737.44 191.79 736.726 192.867C736.01 193.931 735.086 194.811 733.955 195.509C732.822 196.193 731.494 196.634 729.97 196.83C728.433 197.028 727.024 196.941 725.742 196.568C724.471 196.181 723.354 195.563 722.391 194.716C721.427 193.856 720.642 192.808 720.036 191.573C719.431 190.339 719.03 188.966 718.836 187.455ZM723.446 186.407L723.504 186.853C723.626 187.795 723.837 188.674 724.139 189.488C724.441 190.303 724.84 191 725.335 191.579C725.829 192.159 726.423 192.588 727.115 192.866C727.808 193.144 728.599 193.226 729.49 193.111C730.356 192.999 731.081 192.722 731.668 192.279C732.267 191.834 732.732 191.268 733.064 190.582C733.395 189.896 733.604 189.121 733.689 188.257C733.787 187.39 733.776 186.486 733.654 185.543L733.597 185.098C733.477 184.168 733.26 183.303 732.947 182.503C732.645 181.689 732.239 180.986 731.73 180.396C731.233 179.803 730.639 179.368 729.947 179.09C729.265 178.797 728.486 178.707 727.608 178.82C726.73 178.934 725.992 179.219 725.394 179.677C724.808 180.12 724.35 180.691 724.02 181.39C723.69 182.089 723.483 182.871 723.397 183.735C723.31 184.587 723.327 185.477 723.446 186.407ZM744.717 164.285L748.555 194.039L743.867 194.644L740.029 164.89L744.717 164.285ZM754.829 162.981L758.666 192.735L753.979 193.339L750.141 163.586L754.829 162.981ZM773.07 191.271C771.52 191.47 770.087 191.399 768.769 191.057C767.463 190.701 766.312 190.121 765.315 189.317C764.332 188.512 763.527 187.519 762.903 186.339C762.278 185.16 761.873 183.853 761.688 182.42L761.588 181.645C761.377 180.005 761.424 178.489 761.73 177.097C762.036 175.705 762.555 174.483 763.286 173.43C764.015 172.365 764.928 171.505 766.025 170.852C767.122 170.198 768.349 169.784 769.705 169.609C771.203 169.416 772.546 169.499 773.735 169.857C774.923 170.216 775.945 170.806 776.799 171.628C777.664 172.436 778.359 173.442 778.882 174.648C779.418 175.853 779.784 177.21 779.979 178.721L780.236 180.716L764.042 182.805L763.61 179.454L775.193 177.96L775.146 177.592C775.012 176.756 774.742 175.99 774.337 175.294C773.945 174.596 773.41 174.061 772.732 173.689C772.054 173.317 771.198 173.197 770.165 173.331C769.39 173.431 768.721 173.688 768.158 174.102C767.605 174.501 767.169 175.037 766.848 175.708C766.528 176.38 766.315 177.169 766.208 178.075C766.113 178.967 766.136 179.955 766.276 181.04L766.376 181.815C766.494 182.732 766.727 183.568 767.074 184.324C767.432 185.066 767.894 185.696 768.46 186.213C769.025 186.731 769.678 187.113 770.419 187.359C771.158 187.592 771.973 187.651 772.864 187.536C773.988 187.391 774.959 187.036 775.779 186.471C776.599 185.905 777.278 185.168 777.818 184.258L780.585 186.323C780.218 187.04 779.712 187.749 779.067 188.449C778.421 189.136 777.598 189.735 776.601 190.244C775.616 190.752 774.439 191.094 773.07 191.271ZM793.182 184.895C793.943 184.797 794.609 184.56 795.177 184.185C795.757 183.795 796.199 183.305 796.504 182.714C796.821 182.122 796.954 181.468 796.901 180.753L801.298 180.186C801.447 181.545 801.206 182.83 800.574 184.04C799.943 185.251 799.03 186.268 797.837 187.091C796.641 187.902 795.269 188.407 793.719 188.607C792.118 188.814 790.688 188.722 789.43 188.333C788.171 187.931 787.084 187.297 786.172 186.43C785.259 185.563 784.521 184.522 783.957 183.308C783.407 182.093 783.038 180.762 782.852 179.316L782.764 178.638C782.578 177.191 782.596 175.81 782.821 174.495C783.056 173.165 783.505 171.965 784.168 170.894C784.831 169.824 785.721 168.941 786.839 168.246C787.956 167.537 789.308 167.08 790.897 166.876C792.575 166.659 794.091 166.805 795.443 167.313C796.794 167.809 797.907 168.604 798.783 169.698C799.671 170.779 800.229 172.098 800.456 173.658L796.059 174.225C795.92 173.455 795.636 172.783 795.208 172.208C794.79 171.618 794.248 171.176 793.58 170.882C792.924 170.585 792.17 170.492 791.318 170.602C790.375 170.724 789.619 171.018 789.049 171.486C788.478 171.94 788.06 172.519 787.796 173.223C787.531 173.913 787.373 174.676 787.323 175.509C787.284 176.328 787.321 177.17 787.432 178.035L787.52 178.713C787.632 179.579 787.811 180.409 788.058 181.204C788.305 181.999 788.644 182.697 789.076 183.298C789.519 183.884 790.076 184.331 790.746 184.638C791.414 184.933 792.226 185.019 793.182 184.895ZM812.681 164.459L813.12 167.869L801.304 169.393L800.864 165.984L812.681 164.459ZM803.611 160.411L808.28 159.808L810.898 180.109C810.982 180.755 811.136 181.24 811.362 181.566C811.599 181.876 811.893 182.068 812.244 182.141C812.594 182.214 812.996 182.221 813.448 182.163C813.771 182.121 814.078 182.062 814.37 181.985C814.662 181.908 814.896 181.838 815.072 181.776L815.551 185.338C815.178 185.504 814.74 185.666 814.235 185.823C813.743 185.978 813.168 186.098 812.509 186.183C811.437 186.322 810.464 186.257 809.589 185.989C808.713 185.708 807.986 185.165 807.41 184.36C806.833 183.555 806.452 182.435 806.268 181.002L803.611 160.411ZM821.281 163.35L823.985 184.309L819.297 184.914L816.593 163.955L821.281 163.35ZM815.574 158.493C815.482 157.783 815.639 157.166 816.044 156.641C816.46 156.101 817.088 155.777 817.927 155.669C818.754 155.563 819.437 155.717 819.976 156.134C820.514 156.537 820.829 157.094 820.92 157.804C821.01 158.501 820.846 159.113 820.428 159.64C820.011 160.166 819.388 160.483 818.562 160.589C817.722 160.698 817.034 160.55 816.496 160.147C815.971 159.742 815.664 159.191 815.574 158.493ZM826.886 173.517L826.828 173.072C826.633 171.561 826.672 170.132 826.945 168.783C827.215 167.423 827.703 166.211 828.406 165.149C829.12 164.072 830.044 163.191 831.176 162.507C832.32 161.808 833.654 161.36 835.178 161.164C836.715 160.965 838.119 161.06 839.39 161.448C840.672 161.82 841.795 162.437 842.759 163.297C843.722 164.145 844.507 165.192 845.114 166.44C845.72 167.675 846.12 169.047 846.315 170.558L846.373 171.004C846.568 172.515 846.529 173.944 846.256 175.292C845.984 176.64 845.49 177.853 844.776 178.929C844.06 179.993 843.136 180.874 842.005 181.571C840.872 182.256 839.544 182.696 838.02 182.893C836.484 183.091 835.074 183.004 833.792 182.631C832.521 182.243 831.404 181.626 830.441 180.778C829.477 179.918 828.692 178.871 828.087 177.636C827.481 176.401 827.081 175.028 826.886 173.517ZM831.497 172.47L831.554 172.915C831.676 173.858 831.887 174.737 832.189 175.551C832.491 176.365 832.89 177.062 833.385 177.642C833.88 178.221 834.473 178.65 835.166 178.928C835.858 179.207 836.65 179.288 837.541 179.173C838.406 179.062 839.132 178.784 839.718 178.341C840.317 177.896 840.782 177.331 841.114 176.645C841.445 175.959 841.654 175.184 841.739 174.319C841.838 173.453 841.826 172.549 841.704 171.606L841.647 171.16C841.527 170.231 841.31 169.366 840.997 168.566C840.695 167.752 840.289 167.049 839.78 166.458C839.283 165.866 838.689 165.431 837.997 165.152C837.316 164.859 836.536 164.77 835.658 164.883C834.78 164.996 834.042 165.282 833.445 165.739C832.858 166.183 832.4 166.754 832.07 167.453C831.74 168.152 831.533 168.933 831.447 169.798C831.36 170.649 831.377 171.54 831.497 172.47ZM854.111 163.665L856.237 180.149L851.569 180.751L848.865 159.792L853.262 159.225L854.111 163.665ZM853.952 169.002L852.439 169.178C852.26 167.691 852.291 166.302 852.532 165.01C852.785 163.717 853.216 162.579 853.824 161.594C854.445 160.608 855.235 159.811 856.193 159.201C857.15 158.579 858.255 158.187 859.508 158.025C860.515 157.895 861.444 157.92 862.294 158.099C863.156 158.264 863.917 158.619 864.578 159.163C865.252 159.707 865.808 160.456 866.246 161.41C866.683 162.351 866.993 163.539 867.178 164.972L868.925 178.512L864.237 179.117L862.488 165.558C862.358 164.55 862.107 163.775 861.735 163.232C861.374 162.675 860.901 162.309 860.314 162.136C859.738 161.947 859.043 161.906 858.23 162.011C857.429 162.114 856.734 162.374 856.145 162.792C855.555 163.209 855.078 163.737 854.714 164.374C854.363 165.01 854.12 165.724 853.986 166.516C853.852 167.308 853.841 168.137 853.952 169.002Z" fill="white"/>
<path d="M135.604 314.443L149.452 334.839L136.692 380.85" stroke="white" stroke-width="2" stroke-linecap="round" stroke-linejoin="round"/>
<path d="M120.892 316.341L112.673 339.583L136.692 380.85" stroke="white" stroke-width="2" stroke-linecap="round" stroke-linejoin="round"/>
<path d="M146.638 313.02L109.859 317.764L97.9619 341.481L136.692 380.85L164.163 332.942L146.638 313.02Z" stroke="white" stroke-width="2" stroke-linecap="round" stroke-linejoin="round"/>
<path d="M97.9619 341.481L164.163 332.942" stroke="white" stroke-width="2" stroke-linecap="round" stroke-linejoin="round"/>
<path d="M232.995 320.366L227.433 335.872L236.748 349.458L248.375 351.656L259.063 346.58L264.625 331.074L255.31 317.488L243.684 315.29L232.995 320.366Z" stroke="white" stroke-width="2" stroke-linecap="round" stroke-linejoin="round"/>
<path d="M236.748 349.458L228.857 361.567" stroke="white" stroke-width="2" stroke-linecap="round" stroke-linejoin="round"/>
<path d="M259.063 346.58L269.769 356.29" stroke="white" stroke-width="2" stroke-linecap="round" stroke-linejoin="round"/>
<path d="M241.808 300.744L243.684 315.29" stroke="white" stroke-width="2" stroke-linecap="round" stroke-linejoin="round"/>
<path d="M232.996 320.366L224.15 310.416" stroke="white" stroke-width="2" stroke-linecap="round" stroke-linejoin="round"/>
<path d="M255.311 317.487L261.342 305.618" stroke="white" stroke-width="2" stroke-linecap="round" stroke-linejoin="round"/>
<path d="M250.251 366.202L248.375 351.656" stroke="white" stroke-width="2" stroke-linecap="round" stroke-linejoin="round"/>
<ellipse cx="246.029" cy="333.473" rx="33.75" ry="33" transform="rotate(-7.35 246.029 333.473)" stroke="white" stroke-width="2" stroke-linecap="round" stroke-linejoin="round"/>
<path d="M227.433 335.872L212.557 337.791" stroke="white" stroke-width="2" stroke-linecap="round" stroke-linejoin="round"/>
<path d="M279.502 329.155L264.625 331.074" stroke="white" stroke-width="2" stroke-linecap="round" stroke-linejoin="round"/>
<path d="M395.434 328.99L391.681 299.897L374.459 283.634L337.267 288.431L324.736 308.533L328.488 337.625L345.71 353.889L382.902 349.091L395.434 328.99Z" stroke="white" stroke-width="2" stroke-linecap="round" stroke-linejoin="round"/>
<path d="M379.931 326.06L377.508 307.271L368.897 299.139L346.581 302.018L340.316 312.068L342.739 330.857L351.272 338.383L373.587 335.505L379.931 326.06Z" stroke="white" stroke-width="2" stroke-linecap="round" stroke-linejoin="round"/>
<path d="M345.71 353.889L351.272 338.383" stroke="white" stroke-width="2" stroke-linecap="round" stroke-linejoin="round"/>
<path d="M373.587 335.505L382.902 349.091" stroke="white" stroke-width="2" stroke-linecap="round" stroke-linejoin="round"/>
<path d="M337.267 288.431L346.582 302.018" stroke="white" stroke-width="2" stroke-linecap="round" stroke-linejoin="round"/>
<path d="M368.897 299.139L374.459 283.634" stroke="white" stroke-width="2" stroke-linecap="round" stroke-linejoin="round"/>
<path d="M324.735 308.532L340.316 312.068" stroke="white" stroke-width="2" stroke-linecap="round" stroke-linejoin="round"/>
<path d="M328.488 337.625L342.661 330.251" stroke="white" stroke-width="2" stroke-linecap="round" stroke-linejoin="round"/>
<path d="M395.433 328.989L379.853 325.454" stroke="white" stroke-width="2" stroke-linecap="round" stroke-linejoin="round"/>
<path d="M377.508 307.271L391.681 299.897" stroke="white" stroke-width="2" stroke-linecap="round" stroke-linejoin="round"/>
<path d="M441.352 293.49L468.43 271.512L500.198 285.899L503.951 314.992L476.873 336.97L445.105 322.582L441.352 293.49Z" stroke="white" stroke-width="2" stroke-linecap="round" stroke-linejoin="round"/>
<path d="M453.09 297.521L469.837 282.421L489.868 292.777L492.292 311.566L475.466 326.06L455.513 316.31L453.09 297.521Z" stroke="white" stroke-width="2" stroke-linecap="round" stroke-linejoin="round"/>
<path d="M441.352 293.49L453.089 297.521" stroke="white" stroke-width="2" stroke-linecap="round" stroke-linejoin="round"/>
<path d="M468.43 271.512L469.837 282.422" stroke="white" stroke-width="2" stroke-linecap="round" stroke-linejoin="round"/>
<path d="M445.105 322.582L455.435 315.704" stroke="white" stroke-width="2" stroke-linecap="round" stroke-linejoin="round"/>
<path d="M476.873 336.97L475.466 326.06" stroke="white" stroke-width="2" stroke-linecap="round" stroke-linejoin="round"/>
<path d="M503.951 314.992L492.213 310.96" stroke="white" stroke-width="2" stroke-linecap="round" stroke-linejoin="round"/>
<path d="M489.868 292.777L500.198 285.899" stroke="white" stroke-width="2" stroke-linecap="round" stroke-linejoin="round"/>
<path d="M560.558 274.417L580.997 256.992L605.189 268.66L611.253 286.363L609.879 305.025L589.441 322.45L565.249 310.782L559.185 293.079L560.558 274.417Z" stroke="white" stroke-width="2" stroke-linecap="round" stroke-linejoin="round"/>
<path d="M560.559 274.417L572.42 278.432" stroke="white" stroke-width="2" stroke-linecap="round" stroke-linejoin="round"/>
<path d="M580.997 256.992L582.873 271.538" stroke="white" stroke-width="2" stroke-linecap="round" stroke-linejoin="round"/>
<path d="M565.249 310.782L575.703 303.888" stroke="white" stroke-width="2" stroke-linecap="round" stroke-linejoin="round"/>
<path d="M589.441 322.45L587.564 307.904" stroke="white" stroke-width="2" stroke-linecap="round" stroke-linejoin="round"/>
<path d="M609.879 305.025L598.018 301.01" stroke="white" stroke-width="2" stroke-linecap="round" stroke-linejoin="round"/>
<path d="M594.735 275.554L605.189 268.66" stroke="white" stroke-width="2" stroke-linecap="round" stroke-linejoin="round"/>
<rect x="571.716" y="272.977" width="22.5" height="36.6667" rx="11.25" transform="rotate(-7.35 571.716 272.977)" stroke="white" stroke-width="2" stroke-linecap="round" stroke-linejoin="round"/>
<path d="M673.621 259.833L694.06 242.408L718.252 254.076L722.942 290.441L702.504 307.866L678.312 296.198L673.621 259.833Z" stroke="white" stroke-width="2" stroke-linecap="round" stroke-linejoin="round"/>
<path d="M685.483 263.848L695.468 253.318L707.798 260.97L711.16 287.032L701.097 296.956L688.844 289.91L685.483 263.848Z" stroke="white" stroke-width="2" stroke-linecap="round" stroke-linejoin="round"/>
<path d="M673.622 259.833L685.483 263.848" stroke="white" stroke-width="2" stroke-linecap="round" stroke-linejoin="round"/>
<path d="M694.06 242.408L695.467 253.318" stroke="white" stroke-width="2" stroke-linecap="round" stroke-linejoin="round"/>
<path d="M678.312 296.198L688.766 289.304" stroke="white" stroke-width="2" stroke-linecap="round" stroke-linejoin="round"/>
<path d="M702.503 307.866L701.096 296.956" stroke="white" stroke-width="2" stroke-linecap="round" stroke-linejoin="round"/>
<path d="M722.942 290.441L711.081 286.426" stroke="white" stroke-width="2" stroke-linecap="round" stroke-linejoin="round"/>
<path d="M707.798 260.97L718.252 254.076" stroke="white" stroke-width="2" stroke-linecap="round" stroke-linejoin="round"/>
<path d="M779.716 249.845L789.232 235.677L807.124 227.824L826.424 230.88L839.223 242.169L842.976 271.261L833.46 285.428L815.567 293.282L796.268 290.226L783.469 278.937L779.716 249.845Z" stroke="white" stroke-width="2" stroke-linecap="round" stroke-linejoin="round"/>
<path d="M791.577 253.86L798.078 245.628L808.531 238.734L820.393 242.749L828.769 249.063L831.193 267.852L824.849 277.296L814.16 282.372L802.534 280.175L794.001 272.649L791.577 253.86Z" stroke="white" stroke-width="2" stroke-linecap="round" stroke-linejoin="round"/>
<path d="M796.268 290.226L802.534 280.175" stroke="white" stroke-width="2" stroke-linecap="round" stroke-linejoin="round"/>
<path d="M824.849 277.296L833.46 285.428" stroke="white" stroke-width="2" stroke-linecap="round" stroke-linejoin="round"/>
<path d="M789.232 235.677L798.078 245.628" stroke="white" stroke-width="2" stroke-linecap="round" stroke-linejoin="round"/>
<path d="M820.393 242.749L826.424 230.88" stroke="white" stroke-width="2" stroke-linecap="round" stroke-linejoin="round"/>
<path d="M779.716 249.844L791.577 253.86" stroke="white" stroke-width="2" stroke-linecap="round" stroke-linejoin="round"/>
<path d="M807.124 227.824L808.531 238.734" stroke="white" stroke-width="2" stroke-linecap="round" stroke-linejoin="round"/>
<path d="M783.469 278.937L793.923 272.043" stroke="white" stroke-width="2" stroke-linecap="round" stroke-linejoin="round"/>
<path d="M815.567 293.282L814.16 282.372" stroke="white" stroke-width="2" stroke-linecap="round" stroke-linejoin="round"/>
<path d="M842.975 271.261L831.114 267.245" stroke="white" stroke-width="2" stroke-linecap="round" stroke-linejoin="round"/>
<path d="M828.769 249.063L839.223 242.169" stroke="white" stroke-width="2" stroke-linecap="round" stroke-linejoin="round"/>
<path d="M945.082 230.362C933.908 217.015 920.187 213.24 920.187 213.24C920.187 213.24 907.874 220.374 900.452 236.119C893.03 251.865 893.282 268.469 893.282 268.469C893.282 268.469 909.096 273.823 927.692 271.424C946.288 269.026 960.227 259.834 960.227 259.834C960.227 259.834 956.256 243.709 945.082 230.362Z" stroke="white" stroke-width="2" stroke-linecap="round" stroke-linejoin="round"/>
<path d="M935.912 237.437C929.691 229.921 922.063 227.786 922.063 227.786C922.063 227.786 915.227 231.787 911.117 240.635C907.007 249.484 907.161 258.822 907.161 258.822C907.161 258.822 915.954 261.847 926.285 260.515C936.616 259.182 944.353 254.025 944.353 254.025C944.353 254.025 942.133 244.953 935.912 237.437Z" stroke="white" stroke-width="2" stroke-linecap="round" stroke-linejoin="round"/>
<path d="M893.281 268.469L907.22 259.277" stroke="white" stroke-width="2" stroke-linecap="round" stroke-linejoin="round"/>
<path d="M944.412 254.479L960.227 259.834" stroke="white" stroke-width="2" stroke-linecap="round" stroke-linejoin="round"/>
<path d="M922.063 227.786L920.187 213.24" stroke="white" stroke-width="2" stroke-linecap="round" stroke-linejoin="round"/>
<path d="M1008.49 242.517L1026.49 266.075L1055.91 262.28L1067.34 234.926L1055.09 212.475L1032.75 198.72L1014.64 217.693L1008.49 242.517Z" stroke="white" stroke-width="2" stroke-linecap="round" stroke-linejoin="round"/>
<path d="M1032.75 198.72L1035.57 220.539" stroke="white" stroke-width="2" stroke-linecap="round" stroke-linejoin="round"/>
<path d="M1055.91 262.28L1042.06 241.884M1055.09 212.475L1043.39 223.227" stroke="white" stroke-width="2" stroke-linecap="round" stroke-linejoin="round"/>
<path d="M1014.64 217.693L1028.68 225.124M1034.71 242.833L1026.49 266.075" stroke="white" stroke-width="2" stroke-linecap="round" stroke-linejoin="round"/>
<path d="M1008.49 242.517L1030.09 236.034M1067.34 234.926L1044.8 234.136" stroke="white" stroke-width="2" stroke-linecap="round" stroke-linejoin="round"/>
<rect x="1028.21" y="221.488" width="14.8333" height="22" rx="7.41667" transform="rotate(-7.35 1028.21 221.488)" stroke="white" stroke-width="2" stroke-linecap="round" stroke-linejoin="round"/>
<path d="M1176.52 220.843L1153.3 246.021L1124.45 227.56L1114.19 206.7L1120.23 194.831L1130.91 189.755L1146.96 196.928L1160.67 185.917L1172.29 188.115L1181.14 198.065L1176.52 220.843Z" stroke="white" stroke-width="2" stroke-linecap="round" stroke-linejoin="round"/>
<path d="M1162.8 217.068L1150.95 227.838L1136.76 220.426L1131.87 211.814L1136.51 203.822L1148.37 207.837L1158.82 200.943L1165.34 207.497L1162.8 217.068Z" stroke="white" stroke-width="2" stroke-linecap="round" stroke-linejoin="round"/>
<path d="M1158.82 200.943L1160.67 185.917" stroke="white" stroke-width="2" stroke-linecap="round" stroke-linejoin="round"/>
<path d="M1136.51 203.822L1130.91 189.755" stroke="white" stroke-width="2" stroke-linecap="round" stroke-linejoin="round"/>
<path d="M1146.96 196.927L1148.37 207.837" stroke="white" stroke-width="2" stroke-linecap="round" stroke-linejoin="round"/>
<path d="M1114.19 206.7L1131.87 211.814" stroke="white" stroke-width="2" stroke-linecap="round" stroke-linejoin="round"/>
<path d="M1181.14 198.065L1165.34 207.497" stroke="white" stroke-width="2" stroke-linecap="round" stroke-linejoin="round"/>
<path d="M1153.3 246.021L1150.95 227.838" stroke="white" stroke-width="2" stroke-linecap="round" stroke-linejoin="round"/>
<path d="M1124.45 227.56L1136.76 220.426" stroke="white" stroke-width="2" stroke-linecap="round" stroke-linejoin="round"/>
<path d="M1176.52 220.843L1162.79 217.068" stroke="white" stroke-width="2" stroke-linecap="round" stroke-linejoin="round"/>
<path d="M1259.38 169.488L1231.06 213.807L1267.82 234.946L1298.01 205.172L1259.38 169.488Z" stroke="white" stroke-width="2" stroke-linecap="round" stroke-linejoin="round"/>
<path d="M1259.38 169.488L1283.6 210.728L1267.82 234.945" stroke="white" stroke-width="2" stroke-linecap="round" stroke-linejoin="round"/>
<path d="M1259.38 169.488L1246.41 215.525L1267.82 234.945" stroke="white" stroke-width="2" stroke-linecap="round" stroke-linejoin="round"/>
<path d="M1231.06 213.807L1246.41 215.525L1283.6 210.728L1298.01 205.172" stroke="white" stroke-width="2" stroke-linecap="round" stroke-linejoin="round"/>
<path d="M1349.54 176.343L1366.67 222.195L1396.09 218.4L1401.03 169.702L1372.94 154.84L1349.54 176.343Z" stroke="white" stroke-width="2" stroke-linecap="round" stroke-linejoin="round"/>
<path d="M1396.09 218.4L1387.33 208.439L1386.78 175.236L1374.81 169.386L1372.94 154.84" stroke="white" stroke-width="2" stroke-linecap="round" stroke-linejoin="round"/>
<path d="M1374.81 169.386L1364.72 178.082L1372.62 210.337L1366.67 222.195" stroke="white" stroke-width="2" stroke-linecap="round" stroke-linejoin="round"/>
<path d="M1372.62 210.337L1387.33 208.439" stroke="white" stroke-width="2" stroke-linecap="round" stroke-linejoin="round"/>
<path d="M1349.54 176.343L1364.72 178.082M1386.78 175.236L1401.03 169.702" stroke="white" stroke-width="2" stroke-linecap="round" stroke-linejoin="round"/>
</svg>
