<svg width="240" height="79" viewBox="0 0 240 79" fill="none" xmlns="http://www.w3.org/2000/svg">
<path fill-rule="evenodd" clip-rule="evenodd" d="M235.067 21.6043C232.767 21.6043 230.653 19.801 230.653 17.1784C230.653 14.6272 232.694 12.75 235.067 12.75C237.553 12.75 239.505 14.6786 239.505 17.1903C239.505 19.5516 237.641 21.6043 235.067 21.6043ZM235.067 13.1497C232.881 13.1497 231.052 14.9161 231.052 17.1784C231.052 19.454 232.867 21.2072 235.08 21.2072C237.405 21.2072 239.108 19.3419 239.108 17.1903C239.108 14.953 237.392 13.1497 235.067 13.1497ZM235.018 14.3567C235.591 14.3567 235.989 14.3673 236.326 14.4913C236.933 14.7037 237.217 15.2643 237.217 15.7854C237.217 16.1706 237.067 16.8539 236.076 17.1019C236.612 17.3262 236.769 17.6507 236.872 18.272C236.983 19.0438 237.046 19.4395 237.293 19.9408H236.162C236 19.6136 235.975 19.4039 235.863 18.7192C235.678 17.5386 235.603 17.4278 234.198 17.4278V19.9408H233.202V14.3567H235.018ZM234.21 16.6297H235.029C235.442 16.6297 236.225 16.6297 236.225 15.8606C236.225 15.6363 236.124 15.3369 235.827 15.1997C235.627 15.1271 235.454 15.1271 234.844 15.1271H234.21V16.6297Z" fill="black"/>
<mask id="mask0_125_1021" style="mask-type:luminance" maskUnits="userSpaceOnUse" x="184" y="12" width="56" height="53">
<path d="M239.824 12.4707V64.8861H184.381V12.4707H239.824Z" fill="white"/>
</mask>
<g mask="url(#mask0_125_1021)">
<path fill-rule="evenodd" clip-rule="evenodd" d="M224.111 63.8576C223.834 63.0885 223.52 62.0569 223.52 62.0569L218.131 47.7743C217.996 47.459 217.771 47.302 217.457 47.302H202.434C202.165 47.302 201.963 47.4814 201.827 47.8389L198.19 57.4741C197.516 59.1376 197.178 60.5056 197.178 61.586C197.178 62.2561 197.382 62.7732 197.785 63.1334C198.19 63.4935 198.884 63.6716 199.875 63.6716H200.884C201.558 63.6716 201.896 63.8536 201.896 64.2124C201.896 64.661 201.512 64.8865 200.749 64.8865C199.896 64.8865 198.685 64.8615 197.112 64.8179C195.359 64.7282 194.193 64.6821 193.607 64.6821C193.474 64.6821 192.98 64.7045 192.126 64.7507C191.453 64.7507 190.498 64.7731 189.262 64.8179C188.029 64.8615 186.826 64.8865 185.658 64.8865C184.805 64.8865 184.38 64.661 184.38 64.2124C184.38 63.8536 184.648 63.6716 185.185 63.6716C185.859 63.6716 186.558 63.6294 187.275 63.5383C188.711 63.3589 189.836 62.7877 190.645 61.8195C191.453 60.8552 192.239 59.4054 193.001 57.4741L209.912 15.1658C210.317 14.1329 210.654 13.4258 210.923 13.0432C211.192 12.6607 211.485 12.4707 211.797 12.4707C212.295 12.4707 212.854 13.1896 213.483 14.6275C213.797 15.3003 214.471 16.94 215.503 19.5454L219.545 29.7175L225.98 45.719L227.766 50.1646L230.191 56.06C231.315 58.7537 232.347 60.5966 233.288 61.586C234.234 62.5714 235.177 63.1782 236.119 63.4038C237.017 63.5819 237.961 63.6716 238.947 63.6716C239.533 63.6716 239.825 63.8536 239.825 64.2124C239.825 64.4816 239.623 64.661 239.219 64.7507C238.814 64.8404 237.984 64.8865 236.726 64.8865L230.296 64.7401C228.387 64.7401 226.471 64.8839 225.017 64.8839C224.607 64.8839 224.386 64.6267 224.111 63.8576ZM203.781 43.9342H216.177C216.401 43.9342 216.514 43.7983 216.514 43.5279L210.451 26.8879V26.8219C210.362 26.4618 210.25 26.2798 210.114 26.2798C209.933 26.2798 209.8 26.4855 209.709 26.8879L203.512 43.4606C203.512 43.7759 203.601 43.9342 203.781 43.9342Z" fill="black"/>
</g>
<path fill-rule="evenodd" clip-rule="evenodd" d="M141.608 39.257C141.603 39.4219 141.575 43.9888 141.575 43.9888C141.53 45.3344 141.508 48.9726 141.508 53.0014V60.394C141.508 61.2897 141.463 61.8609 141.373 62.1076C141.284 62.353 141.038 62.5891 140.635 62.8134C138.618 63.8423 136.155 64.6048 133.243 65.0982C130.331 65.5889 127.397 65.8369 124.44 65.8369C120.185 65.8369 116.197 65.3211 112.478 64.2921C108.762 63.2632 105.47 61.6696 102.603 59.5207C99.7364 57.3705 97.4846 54.6147 95.8488 51.2561C94.213 47.8962 93.3965 43.9756 93.3965 39.4971C93.3965 34.4803 94.5059 30.0676 96.7234 26.2592C98.9409 22.4521 101.73 19.5394 105.088 17.525C108.002 15.7784 110.889 14.6123 113.758 14.0305C116.624 13.4488 119.76 13.1572 123.164 13.1572C124.285 13.1572 125.426 13.1915 126.591 13.2588C127.754 13.3234 128.967 13.4263 130.22 13.5609C131.472 13.6941 132.503 13.8194 133.311 13.9303C134.118 14.0411 134.698 14.1413 135.057 14.2323C135.953 14.4118 136.893 14.5701 137.879 14.702C138.866 14.8365 139.693 14.9262 140.365 14.9698C140.993 15.0159 141.305 15.2837 141.305 15.7784C141.305 15.913 141.284 16.1583 141.239 16.5171C141.149 17.5026 141.059 18.7452 140.97 20.2464C140.88 21.7477 140.835 23.9309 140.835 26.7974C140.835 27.738 140.591 28.2089 140.095 28.2089C139.738 28.2089 139.515 27.9161 139.425 27.3356C139.289 26.2592 139.066 25.2632 138.753 24.3451C138.438 23.4256 137.901 22.5642 137.139 21.7569C135.932 20.4601 133.993 19.2597 131.327 18.1635C128.663 17.0646 125.604 16.5171 122.157 16.5171C119.691 16.5171 117.386 16.7757 115.235 17.2902C113.086 17.8033 110.957 18.9365 108.851 20.6804C106.882 22.3386 105.357 24.5021 104.282 27.1668C103.207 29.8315 102.669 33.1585 102.669 37.145C102.669 40.7278 103.219 44.0667 104.315 47.1575C105.414 50.2483 106.992 52.9341 109.054 55.2215C111.114 57.505 113.589 59.274 116.477 60.5286C119.366 61.7831 122.558 62.4097 126.051 62.4097C127.307 62.4097 128.391 62.3662 129.311 62.2765C130.23 62.1854 131.048 61.9849 131.764 61.6696C132.615 61.2673 133.041 60.4402 133.041 59.1843V52.8695C133.041 48.9278 133.019 45.3344 132.974 43.9888C132.931 42.824 132.705 41.952 132.304 41.369C131.899 40.7859 131.159 40.3822 130.084 40.1606C129.548 40.0247 128.672 39.9561 127.463 39.9561C126.791 39.9561 126.456 39.778 126.456 39.4206C126.456 38.9747 126.927 38.7491 127.868 38.7491C129.077 38.7491 131.114 38.7939 133.981 38.8836C135.953 38.9272 137.163 38.9483 137.608 38.9483C138.114 38.9483 139.308 38.9114 141.131 38.8309C141.524 38.8309 141.611 39.0921 141.608 39.257ZM162.659 45.4097V33.5834V23.2345C162.659 21.757 162.615 20.459 162.527 19.3363C162.391 17.1439 161.628 15.888 160.239 15.5754C159.569 15.396 158.761 15.3076 157.821 15.3076C157.105 15.3076 156.746 15.0833 156.746 14.6361C156.746 14.276 157.283 14.0979 158.36 14.0979C159.21 14.0979 160.846 14.1415 163.263 14.2325C165.145 14.276 166.421 14.2971 167.095 14.2971C167.631 14.2971 168.73 14.276 170.386 14.2325C172.716 14.1415 174.351 14.0979 175.292 14.0979C176.233 14.0979 176.701 14.276 176.701 14.6361C176.701 15.0833 176.345 15.3076 175.628 15.3076C175.089 15.3076 174.419 15.3749 173.612 15.5094C172.716 15.6875 172.1 16.0688 171.762 16.6518C171.429 17.2323 171.215 18.1293 171.125 19.3363C171.035 20.459 170.989 21.757 170.989 23.2345V33.5834V45.4097C170.989 49.5756 171.001 52.743 171.026 54.9196C171.046 57.0896 171.125 58.8243 171.261 60.1264C171.393 61.1553 171.641 61.9297 172 62.4441C172.357 62.9586 173.005 63.2831 173.948 63.4164C174.442 63.4625 175.001 63.5166 175.628 63.5852C176.255 63.6525 176.836 63.6881 177.373 63.6881C178.09 63.6881 178.451 63.8649 178.451 64.2237C178.451 64.6735 178.023 64.8965 177.174 64.8965C175.292 64.8965 172.827 64.8516 169.782 64.7593C168.348 64.7171 167.318 64.6946 166.69 64.6946C166.334 64.6946 165.279 64.7171 163.532 64.7593C160.935 64.8516 159.166 64.8965 158.224 64.8965C157.329 64.8965 156.881 64.6735 156.881 64.2237C156.881 63.8649 157.238 63.6881 157.956 63.6881C158.761 63.6881 159.569 63.5958 160.375 63.4164C161.449 63.1934 162.101 62.0734 162.324 60.0578C162.458 58.7597 162.547 57.021 162.593 54.851C162.636 52.6783 162.659 49.5308 162.659 45.4097Z" fill="black"/>
<path fill-rule="evenodd" clip-rule="evenodd" d="M53.4708 20.0266L55.386 19.0029L54.8146 18.6038L53.5641 19.346L53.8183 17.9089L53.2469 17.5112L52.9497 19.6619L52.1787 20.7659L52.6999 21.1306L53.4708 20.0266Z" fill="#A8996E"/>
<path fill-rule="evenodd" clip-rule="evenodd" d="M43.1465 15.8471L43.6003 15.9262L44.0079 17.3258L44.7413 17.4525L44.2599 15.9328C44.343 15.9183 44.4247 15.8932 44.5039 15.8563C44.583 15.818 44.6569 15.7692 44.7242 15.7059C44.7915 15.6452 44.8482 15.5714 44.8957 15.4856C44.9432 15.3999 44.9762 15.3009 44.9973 15.1862C45.0197 15.049 45.0197 14.917 44.992 14.7891C44.9656 14.6624 44.9155 14.545 44.8403 14.4395C44.7651 14.3353 44.6662 14.2443 44.5461 14.1691C44.4247 14.0939 44.2823 14.0411 44.1187 14.0134L42.851 13.7944L42.293 17.029L42.9235 17.1372L43.1465 15.8471ZM43.3852 14.4659L43.9802 14.5701C44.1187 14.5938 44.2242 14.6519 44.2941 14.7442C44.3641 14.8379 44.3878 14.9487 44.3654 15.0753C44.343 15.2033 44.2849 15.2996 44.186 15.3642C44.0897 15.4276 43.971 15.4487 43.8324 15.4236L43.2362 15.3207L43.3852 14.4659Z" fill="#A8996E"/>
<path fill-rule="evenodd" clip-rule="evenodd" d="M57.8163 21.9084L56.2385 21.8208L56.1523 23.4001L57.7287 23.4862L57.8163 21.9084Z" fill="#A8996E"/>
<path fill-rule="evenodd" clip-rule="evenodd" d="M16.9267 37.6282L16.3581 37.6081L16.3079 39.1285L15.5125 39.1027L15.5541 37.8091L14.9827 37.7904L14.9411 39.084L14.173 39.0596L14.2204 37.5406L13.6504 37.522L13.5801 39.6812L16.8592 39.786L16.9267 37.6282Z" fill="#A8996E"/>
<path fill-rule="evenodd" clip-rule="evenodd" d="M42.1518 51.521L41.8604 52.2991H46.7647L46.5995 51.521H42.1518Z" fill="#A8996E"/>
<path fill-rule="evenodd" clip-rule="evenodd" d="M49.5073 19.2095L50.6716 16.7631L51.4455 17.1306L51.691 16.6152L49.5633 15.603L49.3178 16.1184L50.093 16.4874L48.9287 18.9353L49.5073 19.2095Z" fill="#A8996E"/>
<path fill-rule="evenodd" clip-rule="evenodd" d="M52.9023 57.7838L53.2627 58.226L54.4414 57.267L54.9425 57.8829L53.9418 58.7027L54.3021 59.1463L55.3057 58.328L55.7909 58.9223L54.6137 59.8842L54.9726 60.3264L56.6466 58.9611L54.5764 56.4199L52.9023 57.7838Z" fill="#A8996E"/>
<path fill-rule="evenodd" clip-rule="evenodd" d="M59.8076 29.4302L60.0962 30.105L61.3955 30.24L60.5901 31.2737L60.8772 31.947L62.0272 30.3491L63.872 30.6018L63.5892 29.9356L62.389 29.8193L63.1398 28.8789L62.857 28.207L61.7558 29.7131L59.8076 29.4302Z" fill="#A8996E"/>
<path fill-rule="evenodd" clip-rule="evenodd" d="M55.0749 28.0604L55.0472 27.918H23.8661L23.841 28.0631C23.8291 28.1224 22.8015 34.1748 24.2038 41.0661C25.5018 47.4403 29.1981 55.8606 39.4468 59.7732L39.5088 59.7983L39.5734 59.7719C49.9645 55.7129 53.6252 47.3005 54.8678 40.9579C56.2107 34.1009 55.0868 28.1198 55.0749 28.0604ZM43.1009 40.2047C43.1602 40.2443 43.2367 40.2443 43.2486 40.3129C43.2592 40.3788 43.3528 40.4725 43.3911 40.5582C43.4161 40.6123 43.4663 40.6348 43.4465 40.673C43.4346 40.6981 43.3304 40.7996 43.2869 40.8115C43.2631 40.8168 43.2169 40.7654 43.1246 40.7891C43.0441 40.8115 42.8555 40.7931 42.8133 40.8432C42.7829 40.8775 42.6602 40.9131 42.5864 40.9302C42.531 40.6902 42.4742 40.4461 42.4122 40.1941C42.6286 40.1664 42.841 40.1401 43.0534 40.1163C43.0652 40.1493 43.0811 40.1915 43.1009 40.2047ZM31.8536 40.4751C31.8431 40.7152 31.4051 40.8274 31.6056 40.9936C31.7837 41.1426 31.6518 41.2798 31.4988 41.446H30.6189C30.6057 41.202 30.5965 40.9579 30.5938 40.7192C30.9843 40.5464 31.3959 40.3762 31.8233 40.2113C31.8352 40.2905 31.8549 40.4342 31.8536 40.4751ZM49.578 40.6361C49.5925 40.7231 49.6861 40.8168 49.7033 40.9302C49.7336 41.1294 49.6795 41.3484 49.6532 41.4051C49.6466 41.4183 49.6426 41.4329 49.64 41.446H48.1454C48.115 41.2825 48.0807 41.1189 48.0464 40.9566C48.0016 40.7522 47.9527 40.5464 47.9 40.3393C48.0068 40.3604 48.1902 40.4092 48.2205 40.4791C48.2456 40.5345 48.1836 40.615 48.2271 40.6413C48.2759 40.6704 48.3248 40.6994 48.3788 40.7284C48.4303 40.7588 48.3722 40.8313 48.4356 40.859C48.5226 40.8973 48.5187 40.8577 48.6018 40.9157C48.7786 41.0424 48.8115 40.7363 48.8537 40.7126C48.9711 40.6453 49.0569 40.7838 49.1915 40.7825C49.2746 40.7812 49.3959 40.5833 49.5041 40.4962C49.541 40.4659 49.5753 40.4488 49.607 40.4553C49.6334 40.4619 49.5621 40.5543 49.578 40.6361ZM34.6397 40.8366C34.5355 40.7772 34.3271 40.8379 34.2123 40.8142C34.2044 40.8128 33.9841 40.702 33.8997 40.6519C33.8772 40.6374 33.8983 40.6176 33.9155 40.6097C33.9471 40.5952 33.9841 40.5675 33.9959 40.5648C34.0157 40.5596 33.9577 40.4553 33.9234 40.4316C33.8904 40.4092 33.868 40.363 33.8416 40.3221C33.8086 40.2733 33.7664 40.2126 33.7638 40.21C33.6965 40.0807 33.7691 39.9963 33.5804 39.9818C33.5382 39.9791 33.339 40.3063 33.1926 40.3142C33.1715 40.1176 33.1517 39.9237 33.1372 39.7338C34.2585 39.3618 34.6054 39.2602 35.5697 38.9884C35.6753 39.6691 35.8019 40.3749 35.943 41.0925C35.5803 41.1928 35.2228 41.2957 34.8666 41.4025C34.8969 41.3405 34.9326 41.2403 34.9312 41.2152C34.9299 41.1308 34.6766 40.8603 34.6397 40.8366ZM29.3551 39.4844C29.3551 39.5042 29.2773 39.4976 29.2496 39.4976C29.2219 39.4976 29.2008 39.5121 29.1942 39.5332C29.1876 39.5544 29.1863 39.6177 29.1929 39.6665C29.2008 39.7153 29.0187 39.9844 28.991 40.0068C28.9699 40.0227 28.8644 40.0293 28.78 40.0121C28.8222 39.7892 28.8697 39.5702 28.9237 39.3552C29.0227 39.2971 29.1256 39.2391 29.2298 39.181C29.4211 39.2734 29.3551 39.4686 29.3551 39.4844ZM29.0609 38.8618C29.1625 38.532 29.2786 38.2128 29.4079 37.9041C29.487 37.9938 29.6282 38.0835 29.5978 38.2207C29.5728 38.3328 29.4778 38.3908 29.4475 38.4977C29.425 38.5795 29.4039 38.623 29.3604 38.6995C29.2588 38.7536 29.1586 38.8077 29.0609 38.8618ZM30.5687 37.0479C30.4738 37.1152 30.5345 37.1535 30.3788 37.23C30.359 37.2392 30.1479 37.511 30.1901 37.5875C30.2324 37.6653 30.0873 37.9885 30.1743 38.0373C30.2601 38.0861 30.1202 38.2009 30.1202 38.222C30.1189 38.2431 29.9184 38.2194 29.8709 38.1428C29.7561 37.9608 29.9158 37.7774 29.8933 37.7207C29.8551 37.6244 29.6941 37.5189 29.5899 37.5017C29.6269 37.4239 29.6651 37.3474 29.7047 37.2709C30.0424 37.0704 30.4223 36.8712 30.8379 36.6733C30.7956 36.792 30.7548 36.9134 30.7165 37.0361C30.6769 37.0242 30.6334 37.0044 30.5687 37.0479ZM31.2943 36.4649C31.7389 36.2683 32.2296 36.0731 32.7507 35.8805C32.8021 35.8633 32.8522 35.8449 32.9024 35.8264C32.8153 36.2709 32.7533 36.7524 32.719 37.2643C32.6478 37.2893 32.5778 37.3157 32.5053 37.3408C32.438 37.2814 32.4261 37.1574 32.3958 37.1205C32.3417 37.0545 32.2441 37.0928 32.2045 37.0756C32.157 37.0532 32.1583 36.9754 32.1003 36.9754C32.07 36.9754 31.876 36.9173 31.785 36.8606C31.7217 36.8197 31.4262 36.6548 31.3629 36.6588C31.3035 36.6627 31.2521 36.6825 31.2046 36.7102C31.231 36.635 31.2613 36.5546 31.2943 36.4649ZM31.2771 40.02C31.2283 40.0385 31.1795 40.0583 31.132 40.0781C31.1334 39.8894 31.1729 39.9567 31.2006 39.8287C31.2085 39.7931 31.0357 39.743 30.9909 39.7087C30.7785 39.5464 30.8682 39.3011 30.9223 39.2378C30.9764 39.1744 31.3576 38.8328 31.2415 38.7826C31.0094 38.6797 31.4302 38.2273 31.574 38.284C31.7164 38.342 31.8826 38.003 32.0475 38.0558C32.2138 38.1085 32.1544 38.1204 32.1953 38.2457C32.219 38.3223 32.1676 38.4186 32.157 38.4871C32.1425 38.565 32.0106 38.5914 32.0436 38.7193C32.0766 38.846 31.7046 39.2958 31.665 39.3182C31.5885 39.3618 31.5806 39.6467 31.756 39.5649C31.9037 39.4976 31.975 39.6942 32.0027 39.7364C31.756 39.8301 31.5133 39.9237 31.2771 40.02ZM34.0316 35.7129C34.0434 35.7763 34.0883 35.8488 34.0949 35.8963C34.1002 35.9491 34.1674 35.9966 34.1833 35.99C34.2083 35.9794 34.2308 35.9702 34.2505 35.9623C34.3363 35.9266 34.3561 35.9979 34.4458 35.99C34.4643 35.9873 34.5117 36.0084 34.5579 36.0322C34.6146 36.0612 34.5962 36.1522 34.5645 36.1918C34.5315 36.2314 34.5025 36.2696 34.4735 36.2749C34.2703 36.3118 34.0672 36.1931 34.1345 36.5744C34.1477 36.6548 34.1833 36.73 34.2255 36.7749C33.8693 36.8817 33.5738 36.9793 33.1121 37.131C33.1504 36.6113 33.2163 36.1245 33.3113 35.6852C33.653 35.5718 33.9036 35.49 34.1265 35.4201C34.0672 35.5137 34.0157 35.6364 34.0316 35.7129ZM49.0213 39.4277C48.8247 39.3868 48.7165 39.4844 48.6097 39.5794C48.3762 39.5583 48.1348 39.5398 47.8842 39.528C47.8855 39.5214 47.8868 39.5161 47.8907 39.5095C47.9805 39.276 47.8881 39.0082 47.991 38.7602C48.0161 38.6982 48.1388 38.5821 48.2285 38.5993C48.2667 38.6059 48.2865 38.6969 48.3551 38.7325C48.3802 38.7457 48.4039 38.8024 48.4184 38.8592C48.425 38.8842 48.4962 38.8446 48.5451 38.8657C48.6176 38.8974 48.7218 38.9634 48.7733 38.9238C48.8683 38.8539 48.9764 38.7655 49.0437 38.7391C49.049 38.7365 49.0556 38.7352 49.0609 38.7338C49.1532 38.9515 49.2389 39.1718 49.3207 39.3961C49.2257 39.4026 49.0978 39.4435 49.0213 39.4277ZM46.4238 40.6651C46.4265 40.6427 46.4911 40.6862 46.565 40.6638C46.5966 40.6532 46.6059 40.5648 46.6072 40.5648C46.5426 40.5213 46.3473 40.487 46.1983 40.425C46.1626 40.4092 46.1811 40.3525 46.1429 40.3406C45.9846 40.2865 45.8302 40.2733 45.7788 40.2139C45.693 40.1124 45.7154 39.9633 45.8434 39.958C45.9463 39.9646 46.1969 40.0464 46.375 40.1031C46.3645 40.1005 46.6573 40.0939 46.6573 40.1031C46.6995 40.1506 46.685 40.3881 46.7576 40.4039C46.8842 40.4342 46.8987 40.549 46.9726 40.6427C47.0069 40.6875 47.0821 40.6704 47.1401 40.7271C47.2325 40.8155 47.3103 40.9804 47.3604 41.049C47.4633 41.1888 47.6111 41.144 47.6902 41.1097C47.714 41.2205 47.7377 41.3326 47.7588 41.446H46.408C46.3909 41.3959 46.3697 41.3247 46.3829 41.2891C46.3922 41.2666 46.4317 41.2587 46.441 41.2297C46.466 41.1545 46.5307 41.082 46.5439 40.9857C46.5518 40.9118 46.4146 40.7324 46.4238 40.6651ZM44.0084 37.7154C44.1958 37.9727 44.1786 37.9674 43.9332 38.0993C43.8396 38.1481 43.5889 38.2945 43.5942 38.4304C43.5982 38.5426 43.7222 38.6085 43.5626 38.6613C43.4979 38.6824 43.2631 38.8948 43.2051 38.7602C43.1629 38.6652 43.2526 38.5333 43.1972 38.4423C43.1734 38.4001 43.0877 38.3935 43.0375 38.4185C43.0177 38.4291 42.9993 38.404 42.9887 38.375C42.9017 38.1534 42.4083 37.9793 42.2685 37.8539C42.217 37.8065 42.2249 37.7484 42.2408 37.689C42.9478 37.6086 43.2974 37.5809 44.0348 37.5242C44.0388 37.536 44.0414 37.5466 44.0467 37.5571C44.0586 37.6218 43.9728 37.664 44.0084 37.7154ZM38.464 38.2945C38.621 38.9475 38.7832 39.6467 38.9481 40.3762C38.0695 40.5556 37.1923 40.7614 36.3335 40.9883C36.1871 40.2416 36.0604 39.5346 35.9589 38.8816C36.7899 38.6613 37.6316 38.4647 38.464 38.2945ZM38.0326 33.6366C38.0445 33.6221 38.0616 33.5442 38.0682 33.502C38.0788 33.4374 37.964 33.3411 37.9416 33.2975C37.931 33.2751 37.8835 33.2474 37.8281 33.2197C38.2199 33.1485 38.6078 33.0865 38.985 33.035C39.1816 33.2514 39.3808 33.5178 39.58 33.8278C39.055 33.903 38.5194 33.9927 37.9825 34.0956C37.9469 33.9835 37.906 33.812 38.0326 33.6366ZM44.457 35.089C44.5005 34.9742 44.5559 34.9096 44.5348 34.7183C44.5321 34.7064 44.573 34.6602 44.6073 34.6193C44.7445 34.7697 44.8778 34.9267 45.0084 35.089C44.8633 35.0876 44.7379 35.0876 44.6245 35.0876C44.5664 35.0876 44.511 35.0876 44.457 35.089ZM43.0824 35.8528C43.0666 35.9121 42.9294 35.9939 42.8898 36.1113C42.7974 36.3831 43.1272 36.6707 43.1035 36.6891C43.0982 36.6931 43.0943 36.7142 43.1009 36.7247C43.1272 36.7749 43.176 36.8778 43.2367 36.9345C43.2908 36.9859 43.3541 37.0057 43.3963 37.007C43.4082 37.007 43.428 36.9991 43.4412 36.9912C43.4478 36.9873 43.4729 36.9859 43.4926 36.9886C43.5164 36.9925 43.5546 36.9912 43.6087 36.9569C43.6536 36.9279 43.6998 36.8883 43.7433 36.8461C43.7908 36.9477 43.8356 37.0506 43.8805 37.1561C43.0454 37.2181 42.6695 37.255 42.031 37.3316C42.0099 37.2761 41.9545 37.2089 41.9057 37.1574C41.8806 37.131 41.6682 37.2524 41.5851 37.3329C41.3886 36.7551 41.1815 36.2103 40.9691 35.7077C41.6827 35.6166 42.3819 35.548 43.052 35.5058C43.0745 35.5441 43.0969 35.5823 43.1193 35.6206C43.0243 35.7459 43.1101 35.7459 43.0824 35.8528ZM35.885 38.2906C36.0341 38.2642 36.0499 38.3605 36.191 38.1099C36.2517 38.003 36.1963 37.9159 36.2174 37.7669C36.2319 37.6574 36.4127 37.1996 36.2979 37.1099C36.166 37.007 36.5644 36.7762 36.6646 36.7894C36.7451 36.7999 36.7517 36.7392 36.7715 36.6918C36.7754 36.6838 36.7992 36.5427 36.8203 36.4596C37.2002 36.3712 37.5762 36.2881 37.9495 36.2116C38.0827 36.7287 38.2265 37.3039 38.3769 37.9252C37.2174 38.1705 36.8915 38.251 35.9008 38.5043C35.889 38.4344 35.8797 38.3645 35.8705 38.2945C35.8744 38.2932 35.8797 38.2919 35.885 38.2906ZM38.1658 34.7447C38.1513 34.7209 38.2081 34.6167 38.1711 34.5916C38.1434 34.5705 38.0801 34.5059 38.0405 34.4452C38.6249 34.3344 39.2093 34.2368 39.7818 34.1563C39.9995 34.5296 40.2119 34.9505 40.4203 35.4095C39.6908 35.5124 38.96 35.6364 38.241 35.7776C38.179 35.5441 38.117 35.3159 38.0537 35.0929C38.1513 34.9821 38.2371 34.8621 38.1658 34.7447ZM42.8383 35.1549C41.965 35.2209 41.655 35.2565 40.8174 35.3581C40.6076 34.8951 40.3952 34.4756 40.1828 34.1049C40.7989 34.0284 41.3859 33.9716 41.9334 33.9373C42.2447 34.2882 42.5481 34.6972 42.8383 35.1549ZM42.089 33.5746C41.8226 33.2923 41.5482 33.0416 41.2712 32.8292C41.6207 32.816 41.9585 32.8147 42.2764 32.824C42.6734 33.0179 43.0613 33.258 43.4346 33.5389C43.0059 33.5363 42.5547 33.5482 42.089 33.5746ZM41.6247 33.6049C41.0865 33.6458 40.5364 33.7025 39.9823 33.7738C39.7937 33.473 39.6024 33.2078 39.4125 32.9809C39.9639 32.915 40.1749 32.8978 40.7224 32.8569C41.0271 33.0588 41.3292 33.3094 41.6247 33.6049ZM37.8572 35.8541C37.596 35.9082 37.3348 35.9649 37.0762 36.0243C37.0775 36.019 37.0802 36.015 37.0815 36.0111C37.2701 35.5177 37.5669 35.4874 37.7318 35.3858C37.7727 35.5362 37.8136 35.6918 37.8572 35.8541ZM39.0299 36.0071C38.9573 36.0863 38.8465 36.1905 38.7885 36.2248C38.7595 36.2419 38.6262 36.5044 38.6816 36.5849C38.737 36.6627 38.7779 36.7643 38.861 36.8118C38.8228 36.8606 39.1249 36.6469 39.1077 36.7379C39.0708 36.92 39.3571 36.668 39.3729 36.6588C39.5417 36.5071 39.7277 36.2815 39.8926 36.139C39.9494 36.0915 39.8135 35.9755 39.671 35.8976C39.9335 35.8567 40.2013 35.8158 40.5733 35.7617C40.791 36.2775 41.0034 36.8382 41.2039 37.4358C40.4071 37.5466 39.5892 37.6838 38.7687 37.8447C38.6223 37.2484 38.4785 36.6746 38.336 36.1364C38.6104 36.0836 38.8333 36.0427 39.0299 36.0071ZM44.8725 36.6891C44.9569 36.5902 44.8026 36.482 44.7788 36.42C44.7577 36.362 45.007 36.0744 44.9068 35.9847C44.8751 35.9557 44.5691 35.8053 44.5678 35.7842C44.5678 35.7815 44.5387 35.5428 44.511 35.4517C44.7406 35.4491 44.9226 35.4517 45.1561 35.4557C45.1535 35.4992 45.1456 35.5533 45.1324 35.6153C45.0941 35.7842 45.4107 35.8 45.4265 35.7974C45.445 35.7921 45.4819 35.7881 45.5215 35.7855C45.6046 35.9082 45.6864 36.0335 45.7669 36.1628C45.6429 36.2023 45.5519 36.5625 45.5532 36.6588C45.5598 37.073 45.693 36.8039 45.7075 36.9424C45.7115 36.9873 45.6745 37.04 45.6403 37.0862C45.3025 37.0888 44.9569 37.0981 44.606 37.1139C44.6416 36.8936 44.9477 37.0044 44.9701 36.8039C44.9728 36.7801 44.8092 36.7656 44.8725 36.6891ZM46.4344 35.5269C46.4449 35.5322 46.4555 35.5348 46.4647 35.5414C46.4832 35.552 46.6718 35.9623 46.6494 36.044C46.623 36.1337 46.3196 36.081 46.16 36.1047C46.0611 35.9451 45.9621 35.7908 45.8592 35.6391C45.8724 35.6285 45.8869 35.618 45.9054 35.6034C45.9766 35.5546 46.0716 35.5177 46.1679 35.5032C46.2589 35.5098 46.3473 35.5177 46.4344 35.5269ZM45.3065 34.8911C45.1574 34.7064 45.0044 34.5296 44.8461 34.3595C44.9833 34.2315 45.2894 34.093 45.3804 34.2157C45.4793 34.3489 45.2999 34.7473 45.3065 34.8911ZM43.6298 34.0627C43.6443 34.0838 43.6351 34.2117 43.6536 34.2566C43.7459 34.4676 43.6048 34.3344 43.552 34.6101C43.5006 34.8832 43.6852 34.7341 43.4544 34.9689C43.4214 35.0019 43.3924 35.0573 43.3647 35.1219C43.3317 35.1233 43.2974 35.1246 43.2618 35.1272C42.9848 34.6813 42.6945 34.275 42.3898 33.9136C42.9874 33.8885 43.2222 33.8872 43.7024 33.8938C43.7433 33.969 43.6483 34.002 43.6298 34.0627ZM40.8147 32.514C40.6709 32.4282 40.5245 32.3491 40.3794 32.2805C40.4414 32.2805 40.5034 32.2818 40.5601 32.2831C40.8569 32.3279 41.1538 32.3965 41.4466 32.4902C41.2593 32.4942 41.072 32.5034 40.8147 32.514ZM39.1249 32.6749C38.9666 32.5311 38.8624 32.4374 38.7608 32.3636C38.9996 32.3385 39.2304 32.3174 39.4534 32.3042C39.7 32.357 39.948 32.4427 40.1934 32.5588C39.8491 32.5878 39.4916 32.6261 39.1249 32.6749ZM41.3253 37.8025C41.3807 37.974 41.4347 38.1494 41.4888 38.3262C41.4519 38.342 41.407 38.3618 41.3912 38.3645C41.316 38.375 41.353 38.6283 41.349 38.6362C41.3239 38.6969 41.3477 38.7787 41.3688 38.8446C41.3912 38.9198 41.4809 38.8592 41.502 38.8948C41.5667 39.0003 41.3358 39.2826 41.5376 39.2945C41.5798 39.2971 41.6603 39.2641 41.7447 39.2127C41.8028 39.4277 41.8608 39.6441 41.9189 39.8644C41.0601 39.9831 40.1974 40.1282 39.3452 40.297C39.1592 39.4805 39.0035 38.8117 38.8584 38.2167C39.675 38.0558 40.5034 37.9159 41.3253 37.8025ZM42.3159 39.8103C42.221 39.4435 42.1247 39.0874 42.0244 38.7417C42.3991 38.6111 42.2619 39.0491 42.4228 38.9159C42.4505 38.8935 42.6312 39.0122 42.4294 39.0979C42.3001 39.1533 42.4663 39.2549 42.5112 39.2866C42.6418 39.3749 42.804 38.7787 43.1338 39.0557C43.1642 39.0808 43.1351 39.1177 43.1061 39.1533C43.0758 39.1903 43.0916 39.214 43.0336 39.2483C42.965 39.2892 42.9478 39.3103 42.8885 39.3248C42.8581 39.3314 42.9096 39.4818 42.9135 39.491C42.9373 39.5675 42.7486 39.6929 42.6378 39.772C42.5297 39.7839 42.4228 39.7971 42.3159 39.8103ZM45.4925 40.9962C45.4463 40.7838 45.3962 40.5741 45.3461 40.367C45.445 40.4751 45.5479 40.5728 45.7075 40.5859C45.7761 40.5925 45.8381 40.6005 45.8975 40.6123C45.9674 40.6255 46.0281 40.7033 46.102 40.7337C46.1811 40.768 46.2708 40.8933 46.3012 40.9619C46.3143 40.9909 46.3381 41.1637 46.2629 41.2046C46.1851 41.2468 46.0558 41.2495 45.9634 41.2495C45.9094 41.2495 45.8328 41.2996 45.8381 41.392C45.8381 41.4157 45.8368 41.4329 45.8342 41.446H45.5875C45.5571 41.2957 45.5255 41.1453 45.4925 40.9962ZM49.4869 38.8275C49.7402 38.871 50.3048 38.8354 50.4895 39.2681C50.6504 39.6454 49.9935 39.433 49.7099 39.4185C49.6386 39.218 49.5648 39.0214 49.4869 38.8275ZM44.1918 33.2975C44.1733 33.3094 43.9966 33.2342 43.9451 33.2764C43.9504 33.3015 43.9148 33.3912 43.924 33.4004C43.9372 33.4136 43.9082 33.4123 43.8594 33.4479C43.5058 33.1788 43.3 33.0271 43.0441 32.8728C43.2354 32.8912 43.4175 32.915 43.585 32.944C43.7842 33.0271 43.9794 33.1181 44.1733 33.2171C44.1997 33.2527 44.2116 33.283 44.1918 33.2975ZM38.2186 32.4295C38.3703 32.4968 38.5233 32.5997 38.6816 32.7356C38.4046 32.7765 38.1249 32.8226 37.8453 32.8728C37.8321 32.8688 37.8215 32.8622 37.8149 32.8477C37.8176 32.8437 37.7767 32.8108 37.7305 32.8081C37.6514 32.8042 37.5406 32.8306 37.4865 32.8187C37.4271 32.8055 37.4443 32.7831 37.4588 32.7501C37.4865 32.6854 37.654 32.7474 37.6764 32.568C37.6777 32.5496 37.6804 32.5311 37.6857 32.5113C37.8638 32.481 38.0418 32.4546 38.2186 32.4295ZM35.5117 38.6085C34.3627 38.9317 34.0421 39.0346 33.1108 39.342C33.1055 39.2562 33.1002 39.1705 33.0963 39.086C33.3482 39.032 33.2968 38.7853 33.2968 38.7734C33.2955 38.7022 33.3773 38.4806 33.3773 38.4806C33.5633 38.4515 33.4656 38.0584 33.5685 37.9819C33.6714 37.9067 33.5527 37.7062 33.4696 37.7352C33.4036 37.759 33.343 37.8117 33.3153 37.8698C33.2876 37.9278 33.1794 37.9041 33.186 37.8671C33.1913 37.8355 33.1477 37.7339 33.0831 37.7075C33.0857 37.6468 33.087 37.5848 33.0897 37.5242C33.7743 37.2973 34.1424 37.1812 34.5711 37.0558C34.5131 37.1878 34.5025 37.3645 34.5289 37.4542C34.55 37.5215 34.6265 37.4965 34.6648 37.5585C34.6951 37.6073 34.6621 37.7471 34.6912 37.784C34.74 37.8487 34.8323 37.9595 34.8389 37.9674C34.922 38.0611 34.9787 38.2365 35.0552 38.2484C35.0988 38.255 35.1687 38.2682 35.1964 38.3117C35.2162 38.342 35.3309 38.3434 35.3507 38.3671C35.4022 38.4291 35.4457 38.4476 35.4879 38.4436C35.4958 38.4977 35.5038 38.5531 35.5117 38.6085ZM34.3996 34.965C34.3996 34.965 34.3996 34.9663 34.3983 34.9663C34.0593 35.0665 33.8034 35.1497 33.4063 35.2816C33.4379 35.1668 33.4709 35.0573 33.5052 34.9505C34.0672 34.6339 34.331 34.9689 34.3996 34.965ZM32.3509 35.0349C32.4789 35.0309 32.6214 35.2248 32.6887 35.2288C32.7678 35.2314 32.9433 35.0718 33.0963 35.0494C33.0593 35.1708 33.0237 35.2934 32.9921 35.4214L32.9221 35.4451C32.8351 35.4768 32.748 35.5071 32.6596 35.5388C32.2362 35.6945 31.8536 35.8462 31.4988 35.9966C31.6914 35.5889 31.913 35.2196 32.1583 34.8911C32.1834 34.8805 32.2098 34.87 32.2349 34.8581C32.2573 34.9452 32.2837 35.0375 32.3509 35.0349ZM30.8854 35.5388C31.0925 35.4161 31.3167 35.2948 31.5594 35.1747C31.4223 35.3884 31.2969 35.618 31.1822 35.8567C31.1307 35.8 31.0371 35.7472 30.9909 35.7406C30.9737 35.7393 30.8708 35.6997 30.7838 35.6575C30.8181 35.618 30.8511 35.5771 30.8854 35.5388ZM30.4764 36.0981C30.5041 36.0731 30.9487 36.0309 30.9777 36.0823C30.9882 36.1034 31.0212 36.1206 31.0555 36.1298C31.045 36.1549 31.0331 36.1799 31.0212 36.205C30.6703 36.3646 30.3366 36.5269 30.0292 36.6918C30.1479 36.5005 30.2733 36.3158 30.4039 36.1364C30.4355 36.1232 30.4619 36.11 30.4764 36.0981ZM28.5742 38.0597C28.8512 37.8328 28.958 37.7497 29.1678 37.6099C28.9514 38.0874 28.7707 38.5914 28.6269 39.1151C28.5003 39.1942 28.3961 39.2602 28.3077 39.3169C28.3235 39.2602 28.3341 39.1823 28.2985 39.1269C28.276 39.0926 28.2035 38.9805 28.1626 38.8499C28.2576 38.6507 28.3855 38.4001 28.5742 38.0597ZM30.2165 40.8894C30.2192 41.0727 30.2258 41.2587 30.2363 41.446H29.5992C29.5675 41.3933 29.5477 41.3009 29.5372 41.2152C29.7548 41.1057 29.9804 40.9975 30.2165 40.8894ZM36.4259 41.446C36.4206 41.4223 36.4153 41.3972 36.41 41.3735C37.2728 41.1466 38.1526 40.9395 39.0352 40.7588C39.084 40.9843 39.1354 41.2139 39.1869 41.446H36.4259ZM39.6011 41.446C39.5576 41.2495 39.514 41.0542 39.4718 40.8643L39.4309 40.6809C40.6498 40.4501 41.006 40.396 42.0139 40.2482C42.097 40.5873 42.1801 40.95 42.2685 41.3511C42.2751 41.3814 42.283 41.4144 42.2896 41.446H39.6011ZM43.8752 41.3656C43.9662 41.2917 43.9451 41.1928 44.0164 41.0846C44.0718 41.0015 44.2208 40.9197 44.2195 40.8603C44.2195 40.8221 44.1377 40.7231 44.1351 40.6427C44.1324 40.5754 44.2024 40.5213 44.2432 40.4949C44.3567 40.4237 44.5256 40.5279 44.5915 40.4659C44.7023 40.3656 44.763 40.1638 44.8738 40.0939C44.9569 40.4105 45.0348 40.7363 45.1073 41.0674C45.135 41.1941 45.1601 41.3194 45.1865 41.446H43.8224C43.8277 41.4183 43.8435 41.3906 43.8752 41.3656ZM38.5181 57.3473C32.099 54.4464 28.3248 50.0655 26.5361 43.4063H38.5181V57.3473ZM40.477 57.3367V43.4063H52.3495C50.7481 48.745 47.3393 54.1035 40.477 57.3367ZM52.8601 41.446H52.8205C51.0818 35.7143 45.7497 31.5299 39.4573 31.5299C33.1649 31.5299 27.8315 35.7143 26.0915 41.446H26.0704C26.0664 41.4263 26.0625 41.4091 26.0585 41.3893C25.1008 36.5493 25.2987 32.1037 25.5177 29.7912H53.4194C53.7175 32.5443 53.8798 36.8883 52.8601 41.446ZM63.5104 32.4006C63.4009 32.4086 63.2874 32.4257 63.1661 32.4521C63.0473 32.4785 62.9181 32.5101 62.7822 32.5431C62.6437 32.5761 62.517 32.6104 62.3983 32.6434C62.2796 32.675 62.1701 32.7133 62.0698 32.7568C61.9696 32.8017 61.8812 32.8557 61.8007 32.9217C61.7203 32.9877 61.6503 33.0708 61.5883 33.171C61.5026 33.3122 61.4485 33.4612 61.4248 33.6169C61.3997 33.7739 61.4102 33.9401 61.4538 34.1156C61.4894 34.262 61.5448 34.3952 61.6187 34.5166C61.6926 34.6379 61.7849 34.7395 61.8957 34.8213C62.0052 34.9031 62.1318 34.9638 62.2743 35.002C62.4181 35.0416 62.5751 35.0535 62.7479 35.039L62.5935 34.4084C62.4563 34.4071 62.335 34.3754 62.2281 34.3134C62.12 34.2514 62.0474 34.1419 62.0078 33.9836C61.9867 33.8979 61.9828 33.8161 61.996 33.7422C62.0092 33.667 62.0355 33.6011 62.0751 33.5444C62.1015 33.5061 62.1305 33.4718 62.1661 33.4415C62.2018 33.4098 62.2506 33.3808 62.3126 33.3531C62.3746 33.3241 62.4563 33.295 62.5566 33.266C62.6582 33.2357 62.7822 33.2027 62.9352 33.1644C63.0869 33.1275 63.2149 33.0985 63.3178 33.0774C63.4193 33.0563 63.5051 33.0444 63.5737 33.0391C63.6423 33.0352 63.699 33.0391 63.7452 33.0497C63.7887 33.0602 63.8336 33.0774 63.8731 33.0985C63.9338 33.1301 63.9892 33.1763 64.0341 33.237C64.0816 33.2964 64.1159 33.3702 64.137 33.456C64.1752 33.6143 64.1634 33.7462 64.0961 33.8504C64.0314 33.9559 63.9391 34.0404 63.8177 34.105L63.9747 34.7369C64.1343 34.6683 64.2689 34.5825 64.3757 34.481C64.4852 34.3807 64.567 34.2686 64.6277 34.1446C64.6871 34.0206 64.7214 33.8887 64.7306 33.7475C64.7411 33.6077 64.7266 33.4626 64.6897 33.3148C64.6475 33.1381 64.5776 32.9863 64.4826 32.8597C64.3889 32.7331 64.2702 32.6275 64.1291 32.5418C64.0288 32.4811 63.9272 32.4402 63.8256 32.4191C63.7241 32.3993 63.6185 32.3927 63.5104 32.4006ZM59.1078 55.5524C59.0669 55.4575 59.0128 55.3664 58.9455 55.2807C58.8769 55.1963 58.7991 55.1118 58.7081 55.0287C58.6197 54.9443 58.5221 54.8559 58.4152 54.7623C58.3097 54.6686 58.2094 54.5815 58.1158 54.5024C58.0221 54.4232 57.9298 54.3546 57.8361 54.2966C57.7438 54.2399 57.6488 54.1963 57.5485 54.166C57.4496 54.1383 57.3414 54.1277 57.224 54.1343C57.0591 54.1436 56.9061 54.1831 56.7623 54.2504C56.6198 54.3203 56.4879 54.4219 56.3692 54.5565C56.2676 54.6686 56.1898 54.79 56.1317 54.9192C56.075 55.0485 56.0433 55.1831 56.0381 55.3189C56.0328 55.4575 56.0552 55.596 56.104 55.7345C56.1515 55.8743 56.2307 56.0115 56.3415 56.1474L56.7728 55.6619C56.6963 55.5485 56.6528 55.4298 56.6436 55.3058C56.6343 55.1831 56.6831 55.0604 56.7913 54.939C56.8507 54.8731 56.9153 54.8243 56.9839 54.7926C57.0538 54.7609 57.1224 54.7451 57.191 54.7464C57.2372 54.7451 57.282 54.7504 57.3282 54.7623C57.3731 54.7741 57.4245 54.7979 57.4826 54.8335C57.5419 54.8691 57.6118 54.9192 57.6936 54.9852C57.7741 55.0512 57.873 55.1369 57.9904 55.2411C58.1065 55.344 58.2028 55.4324 58.278 55.5049C58.3545 55.5788 58.4113 55.6408 58.4548 55.6962C58.497 55.7503 58.526 55.7991 58.5432 55.8413C58.5603 55.8862 58.5696 55.9297 58.5748 55.9759C58.5827 56.0445 58.5761 56.1157 58.5524 56.187C58.53 56.2595 58.4904 56.3281 58.431 56.3954C58.3229 56.5168 58.2055 56.5801 58.0828 56.5853C57.9588 56.5893 57.8374 56.5616 57.716 56.4996L57.2847 56.9851C57.4311 57.0774 57.5762 57.1407 57.7213 57.1724C57.8664 57.204 58.0049 57.2093 58.1408 57.1882C58.278 57.1671 58.4047 57.1209 58.526 57.0497C58.6461 56.9785 58.7582 56.8848 58.8611 56.77C58.9811 56.6355 59.0656 56.493 59.117 56.3439C59.1685 56.1936 59.1882 56.0366 59.179 55.8717C59.1724 55.7543 59.1487 55.6474 59.1078 55.5524Z" fill="#A8996E"/>
<path fill-rule="evenodd" clip-rule="evenodd" d="M59.7074 28.0531L58.8919 26.7696L59.5653 26.3418L60.2587 27.4343L60.7411 27.1285L60.0477 26.0345L60.6966 25.6239L61.5121 26.9074L61.9944 26.6002L60.8344 24.7769L58.0664 26.5356L59.225 28.3589L59.7074 28.0531Z" fill="#A8996E"/>
<path fill-rule="evenodd" clip-rule="evenodd" d="M49.3604 62.4105L50.8793 62.8383L51.3086 61.3179L49.7896 60.8887L49.3604 62.4105Z" fill="#A8996E"/>
<path fill-rule="evenodd" clip-rule="evenodd" d="M47.7728 14.954L47.1627 14.7573L46.1562 17.8799L46.7664 18.0752L47.7728 14.954Z" fill="#A8996E"/>
<path fill-rule="evenodd" clip-rule="evenodd" d="M22.5435 23.4015L22.5133 21.8223L20.9326 21.8539L20.9656 23.4331L22.5435 23.4015Z" fill="#A8996E"/>
<path fill-rule="evenodd" clip-rule="evenodd" d="M26.2354 21.1819L24.2743 18.5503L23.7617 18.9336L25.7229 21.5638L26.2354 21.1819Z" fill="#A8996E"/>
<path fill-rule="evenodd" clip-rule="evenodd" d="M28.1638 19.9218L27.2004 18.1516L29.3051 19.3002L29.8062 19.0274L28.2399 16.1445L27.6771 16.4503L28.6375 18.2162L26.5357 17.072L26.0332 17.3448L27.5995 20.2262L28.1638 19.9218Z" fill="#A8996E"/>
<path fill-rule="evenodd" clip-rule="evenodd" d="M20.7113 26.8572L20.2217 26.5614L19.4364 27.8621L18.7545 27.4515L19.4235 26.3446L18.9354 26.0489L18.2663 27.1572L17.6059 26.7595L18.3912 25.4574L17.9017 25.1616L16.7861 27.0122L19.5943 28.7063L20.7113 26.8572Z" fill="#A8996E"/>
<mask id="mask1_125_1021" style="mask-type:luminance" maskUnits="userSpaceOnUse" x="0" y="0" width="80" height="79">
<path d="M0 79V39.5V0H79.0258V79H0Z" fill="white"/>
</mask>
<g mask="url(#mask1_125_1021)">
<path fill-rule="evenodd" clip-rule="evenodd" d="M73.6782 42.3031C75.3232 41.7702 79.0261 40.6053 79.0261 40.6053L73.7877 38.5408C73.7877 38.5408 77.3125 36.9552 78.9113 36.2336L73.4896 34.7799C74.9631 33.8393 78.3296 31.9635 78.3296 31.9635L72.7693 31.0493L77.207 27.6841L71.6401 27.444L75.7282 23.6039L70.1375 23.9812C71.2641 22.6805 72.6149 21.0302 73.7745 19.7453L68.2564 20.7043L71.3789 16.0648L66.0283 17.665C66.7961 16.1123 68.606 12.6864 68.606 12.6864L63.6802 14.6151L65.4743 9.66687L60.6237 12.3672C61.0617 10.6905 61.6804 8.67881 62.1012 6.985L57.5171 10.2367C57.5171 10.2367 58.1041 6.36499 58.3692 4.70284L54.1796 8.4163L54.4619 2.82038L54.1796 3.15017C53.0227 4.42053 51.8921 5.83073 50.6864 6.97444L50.3566 1.4524L47.0798 5.9732C46.783 4.26355 46.3978 2.24391 46.1643 0.503922L43.3492 5.32812L41.7847 0.0118725L39.5896 5.09463L37.4459 0L35.8273 5.32812L33.1256 0.463028L32.1138 5.92439L28.8977 1.38908L28.4611 6.9441L24.7727 2.78872L24.9653 8.37012L20.8006 4.67381L21.6119 10.1734L17.1228 6.89925L18.4934 12.3197C18.4934 12.3197 15.1889 10.4175 13.6837 9.55606L15.6691 14.7918L10.5362 12.6165L13.069 17.5555L7.75407 15.9448L10.8607 20.5645L5.36638 19.554L8.93209 23.8717L3.40477 23.4218L7.39526 27.3358L1.84024 27.4783L6.26737 30.9398L0.751926 31.7089L5.5471 34.6229C3.89946 35.1242 1.78088 35.5635 0.135874 36.0489L5.18037 38.3509C3.56307 39.025 0 40.418 0 40.418C0 40.418 3.76095 41.5499 5.3268 42.1923L0.337707 44.7462C0.337707 44.7462 4.15142 45.5469 5.84392 45.9084C4.41658 46.8635 1.14768 49.0111 1.14768 49.0111L6.75414 49.5585C5.46795 50.6877 2.43123 53.1836 2.43123 53.1836L8.07067 53.1335L4.17121 57.1886L9.76185 56.4868C8.71179 57.8666 6.32541 60.9469 6.32541 60.9469L11.8316 59.6831L8.90043 64.4757L14.2497 62.6157L11.8514 67.6694C11.8514 67.6694 15.3907 65.8766 16.9408 65.2487L15.1414 70.5927L19.8588 67.5929L18.7203 73.0938L23.0828 69.6481L22.5419 75.1807L26.5707 71.1375L26.5311 76.8152C26.5311 76.8152 29.0098 73.665 30.1061 72.4289C30.3435 74.1491 30.792 78.0341 30.792 78.0341L33.7813 73.2323L34.9883 78.7425L35.2323 78.3058L37.5686 73.6017L39.4326 78.9997L41.3823 73.7837L43.8096 78.7702L45.1222 73.2574C45.1222 73.2574 47.217 76.5777 48.0956 78.0658L48.8053 72.4289C48.8053 72.4289 51.1903 75.5382 52.3024 76.8864L52.4541 71.3934L56.314 75.219L55.8615 69.7286L60.1475 73.1954C59.8045 71.6111 58.9985 67.6311 58.9985 67.6311C60.439 68.6179 62.2977 69.7563 63.7554 70.6969L62.0167 65.3265L67.0652 67.8145C67.0652 67.8145 65.3701 64.2448 64.7118 62.6935C66.2645 63.2581 68.4516 64.0245 69.9885 64.6511C70.1758 64.7923 67.2248 59.7953 67.2248 59.7953L72.5925 61.1224L69.2827 56.6214L74.7757 57.3522L70.8868 53.243L76.5302 53.3722L72.2363 49.7142L77.8336 49.2063L73.1769 46.0324L78.666 44.9546L73.6782 42.3031ZM77.5816 40.3903L70.2457 40.1238L73.5542 38.8073C74.8984 39.3244 76.2334 39.856 77.5816 40.3903ZM68.8975 47.3806L71.6124 49.4688L68.1456 49.7142C68.1456 49.7142 68.6785 48.1642 68.8975 47.3806ZM67.5823 27.6326L71.0267 27.6841C70.1626 28.4677 69.354 29.2631 68.4121 29.9689L67.5823 27.6326ZM68.6746 30.7195L72.0833 31.23C71.0966 31.9028 70.2932 32.5861 69.2735 33.1969L68.6746 30.7195ZM69.6046 44.0734L72.6123 45.9546L69.1178 46.5192L69.6046 44.0734ZM69.4608 34.0596L72.7495 34.9118L69.8381 36.5027L69.4608 34.0596ZM69.9159 40.7663L73.1466 42.2701C72.0345 42.6316 70.8565 42.898 69.7286 43.2107L69.9159 40.7663ZM69.8698 37.3826L73.2244 38.5408C72.173 38.9959 71.0451 39.4497 69.9476 39.8877L69.8698 37.3826ZM77.4405 36.1742L70.1375 36.7375L73.2561 35.0767L77.4405 36.1742ZM76.8139 32.0624L69.6508 33.3842L72.5332 31.3474L76.8139 32.0624ZM75.81 27.9796L68.8527 30.11L71.5306 27.7883L75.81 27.9796ZM74.3536 24.0273L67.614 26.9585L70.0254 24.2938C70.0254 24.2938 72.9236 24.1223 74.3536 24.0273ZM67.238 26.849L66.0785 24.6236C67.2538 24.497 69.5175 24.2938 69.5175 24.2938C69.5175 24.2938 68.0058 25.956 67.238 26.849ZM72.3485 20.3363L65.9228 24.0392L67.9794 21.1014C69.4054 20.8508 70.9383 20.6041 72.3485 20.3363ZM65.6234 23.8717L64.2277 21.6871L67.5098 21.1885L65.6234 23.8717ZM70.1375 16.8022L64.2277 21.0816L66.0283 18.0093C67.4095 17.6017 68.788 17.2257 70.1375 16.8022ZM63.82 21.0816H63.7409L62.2054 19.1688L65.5904 18.0093L63.82 21.0816ZM67.424 13.5571L62.0801 18.4947L63.5602 15.086L67.424 13.5571ZM61.6421 18.5739L59.8216 16.8339C60.8743 16.2851 61.9851 15.768 63.0985 15.2984L61.6421 18.5739ZM60.7029 12.7748L64.4612 10.6272L59.6027 16.1585L60.7029 12.7748ZM59.228 16.2376L57.2361 14.7338L60.2464 12.854C59.9971 13.9344 59.5407 15.0939 59.228 16.2376ZM57.6463 10.5481L61.1078 8.07199L56.9393 14.09L57.6463 10.5481ZM56.5633 14.1995C55.8575 13.8407 55.1518 13.3065 54.4157 12.9305L57.2361 10.7051C57 11.8646 56.7836 13.04 56.5633 14.1995ZM54.3365 8.7949L57.5355 5.89404L54.0384 12.3197L54.3365 8.7949ZM50.9225 7.28841L53.7746 4.09074L50.9832 10.8634C50.9674 9.78163 50.8896 8.49545 50.9225 7.28841ZM53.9619 8.93473L53.6638 12.5084L51.408 11.457L53.9619 8.93473ZM50.5453 7.50871L50.6073 11.1127L48.2882 10.3291V10.2196L50.5453 7.50871ZM49.7933 2.77421L47.7552 9.79746L47.3001 6.22384L49.7933 2.77421ZM46.9703 6.48899L47.4584 10.0626L44.9639 9.54418L46.9703 6.48899ZM45.6934 1.99854L44.4467 9.04422L43.617 5.65923L45.6934 1.99854ZM43.2727 5.89404L44.1829 9.38852L41.658 9.12073L43.2727 5.89404ZM41.5485 1.37985L41.0934 8.71443L39.8138 5.44817L41.5485 1.37985ZM39.5816 5.84919C39.5816 5.84919 40.4523 7.93084 40.8296 9.09171L38.3192 9.04422L39.5816 5.84919ZM37.3325 1.41151L37.7084 8.71443L36.1254 5.54842L37.3325 1.41151ZM35.8748 5.89404L37.4894 9.12073L34.9659 9.38852L35.8748 5.89404ZM33.1626 1.8653C33.1626 1.8653 33.9462 6.67763 34.3221 9.09171L32.4106 6.11303L33.1626 1.8653ZM32.222 6.45733L34.181 9.49801L31.7366 10.0626L32.222 6.45733ZM29.056 2.80587L31.015 9.79746L28.775 7.17232L29.056 2.80587ZM28.6985 7.66173L30.9068 10.2499C30.1522 10.5481 29.3093 10.7987 28.5389 11.1127L28.6985 7.66173ZM27.8173 10.9254L25.27 8.58119L25.1077 4.15538L27.8173 10.9254ZM27.787 11.4253L25.4824 12.4767L25.2502 9.04158L27.787 11.4253ZM9.1669 39.7479C8.05352 39.3719 6.92563 38.8548 5.81357 38.4313C6.9098 37.9934 8.08518 37.6346 9.23022 37.2573C9.08907 38.0395 9.18405 38.9643 9.1669 39.7479ZM9.35554 43.1329L5.89009 42.1158C5.89009 42.1158 8.07067 41.0974 9.1669 40.6106L9.35554 43.1329ZM6.11171 34.702L9.60618 33.9171L9.30805 36.3932L6.11171 34.702ZM9.46503 43.9164L9.95049 46.4097L6.4072 45.7963L9.46503 43.9164ZM6.83197 31.0493C8.00867 30.8751 9.23022 30.7973 10.4359 30.6733L9.79482 33.1177L6.83197 31.0493ZM10.1061 47.2249C10.3739 47.9782 10.6088 48.8237 10.8924 49.606L7.31743 49.4187L10.1061 47.2249ZM10.6048 29.9755L8.19599 27.6735L11.5638 27.5231L10.6048 29.9755ZM21.9892 10.7578L24.8479 12.854L22.5842 14.1995L21.9892 10.7578ZM22.009 14.5966L19.9498 16.1915L18.971 12.9305L22.009 14.5966ZM21.3125 5.9732L24.7779 12.3975L21.9483 10.3053L21.3125 5.9732ZM17.7705 8.18148L21.9087 14.1995L18.8931 12.4807L17.7705 8.18148ZM14.4647 10.738L19.2453 16.3168L16.0727 14.8908L14.4647 10.738ZM19.3825 16.6928L17.5054 18.4947L16.169 15.3406L19.3825 16.6928ZM11.4557 13.6824C13.2273 15.3921 15.0609 16.9764 16.8326 18.6834L13.5254 17.6531L11.4557 13.6824ZM16.9408 19.091C16.4091 19.748 15.8604 20.4062 15.3261 21.0513L13.7009 18.1241L16.9408 19.091ZM8.79226 16.9104C10.7512 18.3853 12.7405 19.8113 14.6837 21.3151L11.2512 20.5711L8.79226 16.9104ZM14.8393 21.6924L13.4925 23.7938L13.4568 23.8624L11.428 20.9629L14.8393 21.6924ZM6.53384 20.4537L12.8513 24.1368L9.40963 23.8822L6.53384 20.4537ZM13.0387 24.5128L11.9108 26.7699L9.62465 24.2635L13.0387 24.5128ZM4.69756 24.2067C6.93883 25.179 9.05741 26.1908 11.2974 27.1458L7.84377 27.2923L4.69756 24.2067ZM3.14885 28.1181L10.1378 30.3448L6.59716 30.7195L3.14885 28.1181ZM2.13046 32.1772L9.30805 33.6203L5.78323 34.3723L2.13046 32.1772ZM1.56453 36.3642L8.85294 37.004L5.46795 38.1332L1.56453 36.3642ZM1.45504 40.5315L8.79226 40.3903L5.59327 41.8493L1.45504 40.5315ZM1.83101 44.7159L9.04158 43.7291L6.08005 45.5786L1.83101 44.7159ZM2.64625 48.8554L9.73151 47.0824L6.94146 49.2287L2.64625 48.8554ZM3.89946 52.8353L10.7341 50.3118L8.22633 52.7562L3.89946 52.8353ZM11.1562 50.3909L12.1759 52.7258L8.6023 52.867L11.1562 50.3909ZM5.59327 56.6768L12.0981 53.3986L9.87266 56.1108L5.59327 56.6768ZM12.5057 53.4791C12.945 54.1519 13.3671 54.9038 13.7906 55.6241L10.2499 56.219L12.5057 53.4791ZM7.72637 60.2794L13.7906 56.3298L11.8633 59.3098L7.72637 60.2794ZM14.2444 56.3773L15.7496 58.3679L12.3474 59.2663L14.2444 56.3773ZM10.1721 63.667L15.8604 59.042L14.2879 62.2041L10.1721 63.667ZM16.268 59.042L17.9605 60.844L14.7589 62.1065L16.268 59.042ZM16.9197 64.7976L13.0387 66.651L18.1478 61.5168L16.9197 64.7976ZM18.5713 61.4864L20.4524 63.1011L17.3642 64.6538L18.5713 61.4864ZM19.81 67.2077L16.1875 69.4951L20.7017 63.7435L19.81 67.2077ZM21.1252 63.6341L23.1488 65.0601L20.2624 67.0032L21.1252 63.6341ZM23.0643 69.2194L19.62 71.9105L23.4931 65.6563L23.0643 69.2194ZM23.8677 65.5468L26.047 66.7209L23.3836 69.0413L23.8677 65.5468ZM23.3374 73.8682L26.4718 67.2868L26.5206 70.6995L23.3374 73.8682ZM27.1023 75.4683L29.6206 68.5229C29.7631 69.7154 30.0203 71.9606 30.0203 71.9606L27.1023 75.4683ZM26.8464 70.4792L26.8781 67.0969L29.1338 68.0388L26.8464 70.4792ZM30.3475 71.6137L29.9636 68.3382L32.3315 69.011L30.3475 71.6137ZM31.2155 76.6239L32.8974 69.4173L33.6085 72.7838L31.2155 76.6239ZM33.8802 72.4118L33.1942 69.1983L35.607 69.6046L33.8802 72.4118ZM35.3722 77.2861L36.2521 69.9819L37.2533 73.3682L35.3722 77.2861ZM37.5646 73.0582L36.5001 69.7299L39.025 69.8711L37.5646 73.0582ZM39.6357 77.5038L39.6674 70.1705L41.0895 73.5278L39.6357 77.5038ZM41.3295 73.1162C41.3295 73.1162 40.4352 70.9238 39.8864 69.8711C40.7175 69.8249 42.3783 69.7299 42.3783 69.7299L41.3295 73.1162ZM43.8056 77.2545L43.0207 69.9819L44.7765 73.0371L43.8056 77.2545ZM45.0127 72.6941L43.2397 69.6534L45.6854 69.23L45.0127 72.6941ZM47.9425 76.5659L46.3609 69.3856L48.4755 72.2865L47.9425 76.5659ZM48.6641 71.9105L46.5482 69.0413L48.9148 68.3672L48.6641 71.9105ZM51.97 75.3746L49.635 68.4477L52.0794 71.119L51.97 75.3746ZM49.7933 68.1008L52.0491 67.1615L52.1006 70.59L49.7933 68.1008ZM39.5131 67.9675C23.7912 67.9675 11.0454 55.223 11.0454 39.4999C11.0454 23.778 23.7912 11.0322 39.5131 11.0322C55.2362 11.0322 67.982 23.778 67.982 39.4999C67.982 55.223 55.2362 67.9675 39.5131 67.9675ZM70.3011 52.9554L66.8911 52.7813L67.8778 50.5466L70.3011 52.9554ZM68.6337 56.2282L65.2461 55.7665C65.7671 54.9064 66.4531 53.6189 66.4531 53.6189L68.6337 56.2282ZM66.6378 59.3441L63.2541 58.4774L64.7118 56.4868L66.6378 59.3441ZM64.3055 62.3188L61.0762 61.001L62.6922 59.1528L64.3055 62.3188ZM60.3572 61.5959L61.6421 64.9031L58.5539 63.2093L60.3572 61.5959ZM57.802 63.7435L58.6938 67.1615L55.8101 65.1696L57.802 63.7435ZM55.4974 69.0875L52.8644 66.7855L55.0133 65.626L55.4974 69.0875ZM55.9011 73.9592L52.7549 67.1615L55.5106 69.6099L55.9011 73.9592ZM59.5262 71.7997L55.7322 65.5468L58.5869 67.5362L59.5262 71.7997ZM62.9903 69.4173L58.5078 63.5866L61.6421 65.3265L62.9903 69.4173ZM66.1668 66.651L61.0762 61.3783L64.3372 62.7251L66.1668 66.651ZM69.0281 63.5562L63.3359 58.8534L66.8132 59.7557L69.0281 63.5562ZM71.4528 60.1712L65.3252 56.1425L68.8316 56.6214L71.4528 60.1712ZM73.5212 56.5171L67.0164 53.1796L70.4568 53.3274L73.5212 56.5171ZM75.215 52.6784L68.3659 50.0915L71.8472 49.8026L75.215 52.6784ZM76.5302 48.7248L69.3315 46.8476L72.9065 46.283L76.5302 48.7248ZM69.9779 43.5101L73.4144 42.5537L77.2505 44.5589L69.9779 43.5101Z" fill="#A8996E"/>
</g>
<path fill-rule="evenodd" clip-rule="evenodd" d="M31.0828 15.6087L31.95 18.1757L32.5587 17.9718L31.6887 15.4034L32.5013 15.1291L32.3189 14.5879L30.0879 15.3416L30.2717 15.8829L31.0828 15.6087Z" fill="#A8996E"/>
<path fill-rule="evenodd" clip-rule="evenodd" d="M15.5462 31.2558C15.6174 31.3323 15.6992 31.3982 15.7915 31.4549C15.8865 31.5104 15.9881 31.5631 16.1015 31.6119C16.2163 31.6581 16.3377 31.7082 16.4696 31.761C16.6002 31.8124 16.7229 31.8586 16.8403 31.9021C16.9551 31.943 17.0659 31.976 17.1727 31.9984C17.2796 32.0209 17.3851 32.0288 17.4893 32.0209C17.5922 32.0143 17.6977 31.9866 17.8046 31.9404C17.9563 31.8744 18.0869 31.7847 18.1977 31.6726C18.3085 31.5592 18.3969 31.418 18.4629 31.2505C18.5275 31.0869 18.5631 30.9233 18.5684 30.7597C18.5737 30.5948 18.5367 30.426 18.4563 30.2519C18.3877 30.1015 18.2887 29.9775 18.1608 29.8759C18.0341 29.7756 17.8613 29.6807 17.641 29.5949L17.1951 29.4182L16.74 30.5711L17.2374 30.7677L17.459 30.2057L17.5751 30.2519C17.6555 30.2835 17.7254 30.3218 17.7835 30.3706C17.8415 30.4181 17.8903 30.4788 17.9286 30.5487C17.9642 30.6186 17.9814 30.6951 17.9827 30.7782C17.9853 30.8613 17.9682 30.9497 17.9326 31.0407C17.8996 31.1238 17.856 31.1911 17.802 31.2439C17.7492 31.2966 17.6885 31.3362 17.6225 31.3586C17.5803 31.3758 17.5355 31.385 17.4906 31.3877C17.4445 31.3916 17.3877 31.3864 17.3205 31.3732C17.2532 31.36 17.1701 31.3362 17.0711 31.3019C16.9709 31.2689 16.8508 31.2228 16.7044 31.1647C16.5593 31.108 16.4393 31.0579 16.3443 31.0157C16.2506 30.9748 16.1754 30.9352 16.1161 30.8996C16.0567 30.8626 16.0132 30.827 15.9815 30.7927C15.9498 30.7597 15.9248 30.7228 15.9037 30.6819C15.8733 30.6199 15.8535 30.5513 15.8496 30.4748C15.8443 30.3983 15.8588 30.3191 15.8918 30.236C15.9525 30.0817 16.0382 29.9748 16.1504 29.9168C16.2598 29.8588 16.3944 29.8416 16.5527 29.864L16.7915 29.2638C16.6543 29.2335 16.5171 29.2229 16.3773 29.2321C16.2374 29.2414 16.1055 29.2757 15.9789 29.335C15.8496 29.3931 15.7335 29.4802 15.6266 29.5923C15.5185 29.7057 15.4301 29.8495 15.3602 30.0276C15.2929 30.1978 15.2599 30.3627 15.2652 30.5197C15.2692 30.6753 15.3048 30.8297 15.3694 30.9814C15.4169 31.0882 15.4763 31.1806 15.5462 31.2558ZM32.6116 24.43C32.7752 24.7637 33.0008 25.0408 33.2857 25.2545C33.5706 25.4668 33.9004 25.6265 34.2658 25.7267C34.6312 25.8283 35.0296 25.8797 35.4452 25.8797C35.7354 25.8797 36.0269 25.856 36.3132 25.8072C36.6008 25.7584 36.8475 25.6819 37.0506 25.579C37.0994 25.5513 37.1284 25.5209 37.1416 25.488C37.1522 25.4589 37.1575 25.4062 37.1575 25.3033V24.5817C37.1575 24.1886 37.1601 23.8337 37.1641 23.7018L37.1667 23.2388C37.1667 23.1979 37.139 23.153 37.0757 23.153C36.8989 23.1609 36.7828 23.1649 36.7327 23.1649C36.6891 23.1649 36.5717 23.1623 36.3791 23.1583C36.0982 23.1491 35.9003 23.1451 35.7816 23.1451C35.6299 23.1451 35.5995 23.2032 35.5995 23.2546C35.5995 23.2836 35.6127 23.3509 35.7407 23.3509C35.8541 23.3509 35.9372 23.3562 35.9887 23.3694C36.081 23.3878 36.1457 23.4221 36.1773 23.4696C36.2129 23.5198 36.2314 23.5989 36.2354 23.7018C36.2406 23.8337 36.2433 24.1833 36.2433 24.5685V25.1859C36.2433 25.2914 36.2103 25.3574 36.143 25.3877C36.0797 25.4167 36.0032 25.4352 35.9174 25.4444C35.8291 25.4537 35.7235 25.4576 35.6035 25.4576C35.2697 25.4576 34.961 25.3969 34.6853 25.2769C34.4096 25.1582 34.1709 24.9867 33.9743 24.769C33.7791 24.5513 33.6247 24.2915 33.5205 23.996C33.4163 23.6978 33.3609 23.3733 33.3609 23.0317C33.3609 22.6491 33.4137 22.3259 33.5152 22.0726C33.6181 21.8207 33.7632 21.6136 33.9492 21.4553C34.1498 21.2904 34.3542 21.1822 34.5574 21.1334C35.0441 21.016 35.6681 21.0371 36.1021 21.2178C36.3554 21.322 36.5427 21.4355 36.6549 21.5582C36.7248 21.632 36.7749 21.7112 36.8026 21.7943C36.8316 21.8787 36.8527 21.9737 36.8672 22.0805C36.8831 22.1808 36.9358 22.2019 36.9767 22.2019C37.0295 22.2019 37.0915 22.1716 37.0915 22.0199C37.0915 21.7428 37.0955 21.5291 37.1047 21.3827C37.1139 21.2363 37.1218 21.1149 37.1311 21.0199C37.135 20.983 37.1377 20.9566 37.1377 20.9434C37.1377 20.9091 37.1258 20.8287 37.0058 20.8207C36.9398 20.8168 36.8606 20.8075 36.7657 20.7944C36.6707 20.7825 36.5797 20.7666 36.4939 20.7495C36.4583 20.7403 36.3989 20.7297 36.3185 20.7192C36.2393 20.7086 36.1377 20.6954 36.0151 20.6822C35.8911 20.6704 35.7723 20.6598 35.6589 20.6532C35.1998 20.6255 34.7711 20.6532 34.3925 20.7297C34.1102 20.7864 33.82 20.9038 33.5324 21.0767C33.1973 21.2772 32.9163 21.57 32.6987 21.9447C32.4797 22.3219 32.3676 22.7652 32.3676 23.2612C32.3676 23.7044 32.4493 24.0976 32.6116 24.43ZM40.4545 25.5726L40.2909 25.5568C40.2104 25.5449 40.1576 25.5199 40.1299 25.4803C40.0983 25.4355 40.0772 25.3682 40.0653 25.2732C40.0534 25.1479 40.0455 24.979 40.0429 24.7693C40.0402 24.5569 40.0389 24.2469 40.0389 23.8406V21.6719C40.0389 21.5294 40.0442 21.4041 40.0534 21.2946C40.0613 21.1851 40.0798 21.102 40.1088 21.0519C40.1352 21.0057 40.1853 20.9753 40.2592 20.9608C40.3344 20.9476 40.3977 20.941 40.4492 20.941C40.5837 20.941 40.5969 20.8645 40.5969 20.8316C40.5969 20.7353 40.4597 20.7353 40.4149 20.7353C40.3239 20.7353 40.1629 20.7392 39.936 20.7484C39.7738 20.7524 39.6669 20.755 39.6141 20.755C39.5495 20.755 39.4242 20.7524 39.2421 20.7484C39.0047 20.7392 38.8451 20.7353 38.7606 20.7353C38.7066 20.7353 38.5588 20.7353 38.5588 20.8316C38.5588 20.8645 38.5746 20.941 38.7092 20.941C38.7963 20.941 38.8714 20.9503 38.9348 20.9661C39.0509 20.9925 39.1129 21.0993 39.1234 21.2946C39.1326 21.4041 39.1379 21.5294 39.1379 21.6719V23.8406C39.1379 24.2429 39.1353 24.549 39.1313 24.7614C39.126 24.9724 39.1181 25.1413 39.1036 25.2666C39.0838 25.442 39.0324 25.5397 38.9493 25.5568C38.8714 25.574 38.7949 25.5832 38.7224 25.5832C38.5931 25.5832 38.572 25.6426 38.572 25.6795C38.572 25.7283 38.6037 25.7877 38.7474 25.7877C38.8398 25.7877 39.0126 25.7837 39.2685 25.7745C39.4374 25.7705 39.5416 25.7679 39.5759 25.7679C39.6366 25.7679 39.7368 25.7705 39.8767 25.7745C40.1735 25.7837 40.4149 25.7877 40.5996 25.7877C40.7394 25.7877 40.7671 25.7283 40.7671 25.6795C40.7671 25.6426 40.7499 25.5832 40.6193 25.5832C40.5679 25.5832 40.5138 25.5792 40.4545 25.5726ZM41.4264 25.782C41.5425 25.782 41.6586 25.7794 41.7813 25.7754C41.9 25.7714 41.9937 25.7688 42.0741 25.7688C42.1467 25.7648 42.1902 25.7622 42.2021 25.7622C42.2601 25.7622 42.3723 25.7675 42.5424 25.7754C42.6968 25.7794 42.8155 25.782 42.8986 25.782C43.0345 25.782 43.0543 25.7134 43.0543 25.6725C43.0543 25.6369 43.0358 25.5762 42.9105 25.5762H42.8142C42.7298 25.5762 42.6704 25.563 42.6387 25.5353C42.6097 25.5089 42.5952 25.4694 42.5952 25.4166C42.5952 25.3176 42.6269 25.1884 42.6902 25.0314L43.0635 24.0684L44.5528 24.0855L45.0752 25.4759C45.0752 25.4759 45.1082 25.5775 45.1346 25.6527C45.1583 25.7187 45.186 25.782 45.2639 25.782C45.3312 25.782 45.4077 25.778 45.4895 25.7754C45.5818 25.7728 45.6807 25.7688 45.777 25.7688L46.405 25.782C46.5316 25.782 46.6147 25.778 46.6582 25.7688C46.744 25.7503 46.7519 25.6963 46.7519 25.6725C46.7519 25.6501 46.744 25.5762 46.6239 25.5762C46.5303 25.5762 46.4393 25.567 46.3561 25.5511C46.2744 25.5327 46.1886 25.4773 46.1029 25.3862C46.0158 25.2952 45.9169 25.1185 45.81 24.8612L44.3774 21.3021C44.2771 21.0475 44.2112 20.8866 44.1795 20.8219C44.1096 20.6583 44.0463 20.5845 43.975 20.5845C43.9447 20.5845 43.8972 20.5977 43.8563 20.6583C43.826 20.6966 43.7956 20.7612 43.7508 20.8747L42.1031 24.9997C42.0293 25.1844 41.9541 25.3229 41.8789 25.4126C41.809 25.4971 41.7087 25.5485 41.5808 25.563C41.5122 25.5722 41.4449 25.5762 41.3816 25.5762C41.2681 25.5762 41.2589 25.6501 41.2589 25.6725C41.2589 25.7134 41.2813 25.782 41.4264 25.782ZM43.8088 22.0619L44.4025 23.6529L43.2099 23.6661L43.8088 22.0619Z" fill="#A8996E"/>
<path fill-rule="evenodd" clip-rule="evenodd" d="M36.9092 17.006L36.8144 16.4418L35.3141 16.6902L35.1835 15.9049L36.4627 15.6924L36.3679 15.1281L35.0902 15.3406L34.9653 14.5812L36.4655 14.3313L36.3722 13.7686L34.2402 14.1217L34.7757 17.3592L36.9092 17.006Z" fill="#A8996E"/>
<path fill-rule="evenodd" clip-rule="evenodd" d="M17.3367 34.9462C17.371 34.7773 17.3776 34.6151 17.3578 34.4581C17.3367 34.3024 17.2852 34.1626 17.2008 34.0346C17.1283 33.9265 17.0465 33.8394 16.9528 33.7735C16.8591 33.7075 16.7589 33.6547 16.6507 33.6138C16.5439 33.5729 16.4317 33.5413 16.313 33.5175L15.9516 33.4437L15.5993 33.3724C15.4819 33.3487 15.3685 33.3342 15.255 33.3315C15.1429 33.3276 15.0334 33.3381 14.9252 33.3632C14.8158 33.3883 14.7076 33.4371 14.5994 33.5083C14.4728 33.5927 14.3699 33.7035 14.2907 33.8394C14.2103 33.9753 14.1535 34.1283 14.1206 34.2958L13.8857 35.458L17.1032 36.1071L17.3367 34.9462ZM16.7642 34.8921L16.6679 35.367L14.573 34.9436L14.6693 34.4687C14.6904 34.3605 14.7247 34.2721 14.7735 34.2022C14.8224 34.1336 14.8857 34.0795 14.9622 34.0386C15.0044 34.0162 15.0506 34.0003 15.0981 33.9911C15.1482 33.9819 15.2062 33.9792 15.2735 33.9845C15.3421 33.9885 15.4213 33.9977 15.5096 34.0135C15.6007 34.0281 15.7049 34.0478 15.8249 34.0729C16.0703 34.1204 16.2536 34.1666 16.3803 34.2101C16.5069 34.2523 16.5993 34.309 16.6613 34.3816C16.7154 34.4489 16.7523 34.5241 16.7708 34.6058C16.7879 34.689 16.7866 34.7839 16.7642 34.8921ZM38.2997 15.6572C38.305 15.7812 38.3156 15.8946 38.3367 16.0028C38.3551 16.111 38.3894 16.2099 38.4343 16.3036C38.4791 16.3972 38.5451 16.4843 38.6282 16.5648C38.7469 16.6809 38.8788 16.7692 39.0253 16.8273C39.1717 16.888 39.3366 16.917 39.5186 16.9143C39.6928 16.9117 39.8577 16.8814 40.012 16.8246C40.1663 16.7679 40.3075 16.669 40.4381 16.5292C40.5502 16.4091 40.6294 16.2706 40.6742 16.1149C40.7217 15.9593 40.7428 15.7627 40.7402 15.5266L40.7336 15.0464L39.4949 15.0622L39.5015 15.5965L40.1043 15.5886L40.107 15.7139C40.107 15.7997 40.0978 15.8788 40.074 15.9514C40.0529 16.0239 40.016 16.0912 39.9645 16.1532C39.9131 16.2126 39.8497 16.2587 39.7719 16.2917C39.6967 16.3247 39.6083 16.3418 39.5094 16.3431C39.421 16.3445 39.3419 16.33 39.272 16.2996C39.2034 16.2706 39.1453 16.2297 39.0991 16.1769C39.0662 16.1453 39.0411 16.107 39.0213 16.0661C39.0002 16.0252 38.9831 15.9698 38.9699 15.9025C38.9567 15.8353 38.9474 15.7495 38.9422 15.6453C38.9369 15.5411 38.9316 15.4105 38.929 15.2535C38.9276 15.0979 38.929 14.9673 38.9316 14.8644C38.9356 14.7615 38.9435 14.6757 38.954 14.6084C38.9659 14.5412 38.9804 14.4858 39.0002 14.4435C39.0213 14.4027 39.0451 14.3657 39.0754 14.3301C39.1202 14.2773 39.1783 14.2338 39.2469 14.2021C39.3155 14.1692 39.3946 14.152 39.4843 14.1507C39.6492 14.1481 39.7798 14.1876 39.8775 14.2681C39.9724 14.3472 40.0397 14.466 40.0793 14.6216L40.7244 14.6137C40.7006 14.4765 40.6584 14.3446 40.5964 14.2206C40.5357 14.094 40.4539 13.9845 40.351 13.8882C40.2481 13.7932 40.1255 13.7167 39.9803 13.66C39.8339 13.6032 39.6664 13.5769 39.4751 13.5782C39.2917 13.5821 39.1282 13.6138 38.9844 13.6771C38.8406 13.7404 38.7126 13.8301 38.5965 13.9502C38.5147 14.0333 38.4527 14.1217 38.4079 14.2166C38.3644 14.3103 38.3353 14.4119 38.3182 14.5187C38.301 14.6269 38.2905 14.7417 38.2892 14.8644C38.2879 14.9884 38.2879 15.1203 38.2905 15.2614C38.2918 15.4026 38.2944 15.5345 38.2997 15.6572Z" fill="#A8996E"/>
<path fill-rule="evenodd" clip-rule="evenodd" d="M61.2783 45.7928L61.8339 45.9206L62.1713 44.472L64.8087 45.0836L64.9551 44.4605L61.7593 43.7183L61.2783 45.7928Z" fill="#A8996E"/>
<path fill-rule="evenodd" clip-rule="evenodd" d="M16.9143 41.2344L16.3486 41.3062L16.5338 42.782L13.8477 43.1237L13.9281 43.7583L17.1842 43.3463L16.9143 41.2344Z" fill="#A8996E"/>
<path fill-rule="evenodd" clip-rule="evenodd" d="M19.3186 52.3239C19.4242 52.2606 19.5192 52.1946 19.6023 52.126C19.6867 52.0561 19.7579 51.9796 19.8186 51.8938C19.878 51.8094 19.9228 51.7092 19.9532 51.597C19.998 51.4374 20.0112 51.2804 19.9927 51.1248C19.9756 50.9678 19.9202 50.8095 19.8278 50.6459C19.7355 50.4823 19.6273 50.3544 19.5033 50.2607C19.3793 50.1671 19.2382 50.0985 19.0799 50.0536C18.9664 50.0219 18.8583 50.0114 18.7554 50.018C18.6525 50.0246 18.5496 50.047 18.4454 50.0826C18.3411 50.1196 18.2356 50.1657 18.1274 50.2238C18.0193 50.2818 17.9045 50.3451 17.7805 50.4164C17.6578 50.485 17.5444 50.5523 17.4402 50.6156C17.3346 50.6789 17.2383 50.7449 17.1565 50.8161C17.0734 50.886 17.0009 50.9638 16.9415 51.0496C16.8821 51.134 16.8373 51.2329 16.8056 51.3464C16.7621 51.5047 16.7489 51.6617 16.7661 51.8173C16.7832 51.9717 16.8373 52.13 16.9296 52.2936C17.022 52.4558 17.1301 52.5851 17.2555 52.6801C17.3795 52.7751 17.5219 52.8463 17.6802 52.8885C17.7937 52.9202 17.9019 52.932 18.0048 52.9241C18.109 52.9162 18.2119 52.8951 18.3148 52.8582C18.4163 52.8212 18.5219 52.7737 18.63 52.7144C18.7382 52.6576 18.8543 52.593 18.977 52.5231C19.0997 52.4545 19.2131 52.3872 19.3186 52.3239ZM18.32 52.1524C18.2277 52.1999 18.1485 52.2342 18.0852 52.2566C18.0193 52.2804 17.9639 52.2922 17.9177 52.2949C17.8728 52.2988 17.828 52.2949 17.7831 52.2856C17.7145 52.2711 17.6499 52.2408 17.5866 52.1959C17.5233 52.1498 17.4705 52.0891 17.4256 52.0113C17.3821 51.9334 17.357 51.8569 17.3518 51.7804C17.3452 51.7039 17.3544 51.634 17.3768 51.568C17.39 51.5245 17.4098 51.4823 17.4362 51.444C17.4613 51.4044 17.5008 51.3635 17.5523 51.3187C17.6051 51.2752 17.675 51.225 17.7634 51.1696C17.8491 51.1155 17.9612 51.0496 18.0971 50.9717C18.233 50.8952 18.3477 50.8332 18.4388 50.7857C18.5298 50.7396 18.6089 50.704 18.6736 50.6815C18.7382 50.6591 18.7936 50.6472 18.8398 50.6459C18.8873 50.6433 18.9335 50.6472 18.9783 50.6578C19.0456 50.6723 19.1115 50.7013 19.1735 50.7462C19.2342 50.7897 19.2883 50.8504 19.3318 50.9282C19.3754 51.0047 19.4004 51.0826 19.4084 51.1604C19.4149 51.2382 19.407 51.3095 19.3833 51.3754C19.3688 51.4176 19.349 51.4585 19.3226 51.4968C19.2975 51.535 19.258 51.5759 19.2052 51.6195C19.1524 51.6643 19.0825 51.7131 18.9955 51.7685C18.9084 51.8239 18.7963 51.8886 18.6617 51.9664C18.5258 52.0429 18.4097 52.1062 18.32 52.1524Z" fill="#A8996E"/>
<path fill-rule="evenodd" clip-rule="evenodd" d="M18.2095 47.1993L16.1292 47.251L17.8305 46.0522L17.6625 45.5439L14.2686 45.7363L14.4796 46.3723L16.6044 46.2087L14.827 47.4276L14.9778 47.8827L17.1313 47.8023L15.3238 48.9336L15.5334 49.5682L18.376 47.7075L18.2095 47.1993Z" fill="#A8996E"/>
<path fill-rule="evenodd" clip-rule="evenodd" d="M60.04 49.0892L60.5698 49.3046L61.1426 47.8947L61.8792 48.1962L61.3925 49.395L61.9222 49.6104L62.4104 48.4116L63.1225 48.7016L62.5496 50.1086L63.078 50.3254L63.892 48.3226L60.8526 47.0879L60.04 49.0892Z" fill="#A8996E"/>
<path fill-rule="evenodd" clip-rule="evenodd" d="M59.0624 50.9123L60.7723 51.9747L58.3747 52.0149L58.0732 52.5001L60.8599 54.2316L61.1959 53.6889L59.4917 52.6279L61.885 52.5848L62.1879 52.101L59.3998 50.3667L59.0624 50.9123Z" fill="#A8996E"/>
<path fill-rule="evenodd" clip-rule="evenodd" d="M22.4816 54.4341L20.9325 55.7219L21.6503 53.4335L21.2842 52.9941L18.7617 55.0917L19.1709 55.5856L20.7157 54.3006L20.0022 56.5848L20.3668 57.0241L22.8907 54.9266L22.4816 54.4341Z" fill="#A8996E"/>
<path fill-rule="evenodd" clip-rule="evenodd" d="M42.5501 63.8361C42.4578 63.7253 42.3509 63.6435 42.2283 63.5921C42.3312 63.5261 42.4129 63.4351 42.4749 63.3243C42.5383 63.2121 42.5633 63.067 42.5475 62.8903C42.5356 62.7518 42.5 62.6278 42.4406 62.5169C42.3826 62.4061 42.3048 62.3138 42.2085 62.2386C42.1135 62.1634 42.0027 62.108 41.876 62.0737C41.7494 62.0381 41.6148 62.0262 41.4711 62.0394C41.3339 62.0513 41.2059 62.0829 41.0885 62.137C40.9711 62.1898 40.8722 62.2597 40.7904 62.3481C40.7086 62.4338 40.6466 62.5381 40.6017 62.6568C40.5582 62.7768 40.541 62.9101 40.5503 63.0578L41.1465 63.0064C41.1426 62.8797 41.1742 62.7795 41.2442 62.7043C41.3128 62.6291 41.4038 62.5855 41.5172 62.5763C41.6241 62.5671 41.7204 62.5935 41.8061 62.6581C41.8919 62.7214 41.9407 62.823 41.9526 62.9589C41.9618 63.0763 41.938 63.1765 41.8813 63.2596C41.8233 63.3441 41.7217 63.3916 41.574 63.4034L41.4869 63.4127L41.5317 63.9311L41.6188 63.9219C41.7665 63.9113 41.8826 63.9417 41.9697 64.0155C42.0541 64.0894 42.1043 64.1963 42.1161 64.3348C42.1293 64.4812 42.0977 64.5973 42.0211 64.683C41.9446 64.7674 41.8431 64.8149 41.7151 64.8268C41.6571 64.8321 41.6003 64.8281 41.5462 64.8163C41.4908 64.8031 41.4407 64.782 41.3998 64.7503C41.3563 64.7186 41.3194 64.6764 41.2903 64.625C41.2613 64.5735 41.2428 64.5115 41.2336 64.439L40.636 64.4904C40.6545 64.6606 40.6967 64.8044 40.7666 64.9192C40.8352 65.0352 40.921 65.1289 41.0239 65.1988C41.1268 65.2687 41.2415 65.3162 41.3682 65.3426C41.4961 65.3677 41.6267 65.3756 41.7613 65.3637C41.9011 65.3518 42.033 65.3202 42.1557 65.2701C42.2771 65.2199 42.3826 65.15 42.4697 65.0603C42.558 64.9706 42.624 64.8624 42.6689 64.7358C42.7137 64.6078 42.7282 64.4627 42.715 64.3018C42.6979 64.1026 42.6425 63.9469 42.5501 63.8361Z" fill="#A8996E"/>
<path fill-rule="evenodd" clip-rule="evenodd" d="M44.9467 61.499L44.4385 62.2241L44.5935 62.8515L45.1018 62.125L45.7392 64.6848L46.3192 64.5413L45.5296 61.3555L44.9467 61.499Z" fill="#A8996E"/>
<path fill-rule="evenodd" clip-rule="evenodd" d="M24.7656 57.9716L24.1153 58.0893L24.424 56.4024L23.8511 55.9243L23.4793 58.1884L21.8096 58.4942L22.4068 58.9924L24.21 58.6363L23.2969 59.7332L23.7865 60.1438L25.8898 57.6242L25.3973 57.2136L24.7656 57.9716Z" fill="#A8996E"/>
<path fill-rule="evenodd" clip-rule="evenodd" d="M38.4532 62.379C38.3675 62.2867 38.2646 62.2141 38.1445 62.16C38.0232 62.1059 37.8912 62.0743 37.7488 62.0624C37.605 62.0532 37.4691 62.0664 37.3412 62.1033C37.2145 62.1389 37.1011 62.1983 37.0034 62.2774C36.9058 62.3592 36.8254 62.4608 36.7647 62.5835C36.7027 62.7062 36.6657 62.8486 36.6539 63.0083C36.6433 63.16 36.6565 63.2998 36.6974 63.4225C36.737 63.5452 36.7937 63.6507 36.8676 63.7391C36.9414 63.8288 37.0272 63.8987 37.1288 63.9515C37.229 64.0029 37.3346 64.0333 37.444 64.0412C37.4849 64.0438 37.5258 64.0438 37.5667 64.0412C37.6089 64.0385 37.6498 64.0306 37.6907 64.0174L36.9124 65.3181L37.5588 65.3656L38.3556 64.0029C38.44 63.8578 38.5152 63.718 38.5785 63.5808C38.6419 63.4436 38.6801 63.2998 38.6907 63.1494C38.7025 62.9885 38.688 62.8407 38.6445 62.7128C38.6036 62.5835 38.539 62.4727 38.4532 62.379ZM38.0944 63.1112C38.0838 63.2629 38.035 63.3789 37.948 63.4555C37.8635 63.532 37.7593 63.5663 37.6366 63.557C37.5087 63.5465 37.4097 63.4963 37.3398 63.4066C37.2686 63.3143 37.2396 63.1943 37.2515 63.0465C37.262 62.8948 37.3108 62.78 37.3966 62.7035C37.481 62.6257 37.5852 62.5927 37.7079 62.602C37.8306 62.6099 37.9282 62.6587 38.0021 62.7484C38.0746 62.8368 38.1063 62.9568 38.0944 63.1112Z" fill="#A8996E"/>
<path fill-rule="evenodd" clip-rule="evenodd" d="M33.394 61.9598L33.249 62.5901L34.0315 62.1723L33.4414 64.7422L34.0243 64.8786L34.7594 61.6784L34.175 61.5435L33.394 61.9598Z" fill="#A8996E"/>
<path fill-rule="evenodd" clip-rule="evenodd" d="M27.9717 61.3616L28.4656 62.8604L29.9658 62.3694L29.4734 60.8677L27.9717 61.3616Z" fill="#A8996E"/>
<path fill-rule="evenodd" clip-rule="evenodd" d="M61.9814 42.3685L62.5514 42.4101L62.6591 40.9256L65.361 41.1223L65.407 40.482L62.1365 40.2451L61.9814 42.3685Z" fill="#A8996E"/>
<path fill-rule="evenodd" clip-rule="evenodd" d="M46.8878 46.1982L47.2176 45.8037L46.9696 45.5966L47.6252 44.8183L46.9393 44.2432L46.285 45.0215L46.0383 44.813L45.748 45.1573C45.7533 45.16 45.7546 45.1626 45.7599 45.1666C46.1095 45.4238 46.5475 45.747 46.8878 46.1982Z" fill="#A8996E"/>
<path fill-rule="evenodd" clip-rule="evenodd" d="M62.1468 38.8068L62.7168 38.7594L62.5933 37.2447L63.3887 37.1787L63.4935 38.4694L64.0635 38.4234L63.9587 37.1328L64.7253 37.0682L64.8488 38.5857L65.4188 38.5397L65.2422 36.3848L61.9717 36.6504L62.1468 38.8068Z" fill="#A8996E"/>
<path fill-rule="evenodd" clip-rule="evenodd" d="M32.3717 51.0329L30.7135 47.5991H29.4326V47.7561C29.4326 47.7561 31.2834 49.8206 32.3717 51.0329ZM44.543 48.3449L45.2316 47.5271L45.5482 47.7935L45.7751 47.5231C45.6643 47.1181 45.3213 46.8437 44.8042 46.4638C44.7726 46.4401 44.7435 46.4163 44.7119 46.3926L44.3676 46.8015L44.6789 47.064L43.9916 47.8819L44.543 48.3449Z" fill="#A8996E"/>
<path fill-rule="evenodd" clip-rule="evenodd" d="M44.3381 50.1892H44.3355L43.9608 51.1957H45.9383L45.7694 50.2908C46.4343 49.9623 46.9487 49.1312 47.0516 48.0917C47.0609 48.0046 47.0648 47.9202 47.0648 47.8371C47.0661 47.8015 47.0635 47.7645 47.0635 47.7276C47.0609 47.6854 47.0609 47.6419 47.0569 47.6023C47.053 47.5548 47.0464 47.5099 47.0398 47.4651C47.0358 47.4374 47.0332 47.4084 47.0279 47.3807C47.02 47.3305 47.0068 47.2791 46.9949 47.2303C46.9896 47.2131 46.9883 47.1933 46.9817 47.1762C46.9659 47.1221 46.9474 47.0693 46.9303 47.0179C46.9263 47.0073 46.9224 46.9955 46.9171 46.9836C46.8973 46.9282 46.8736 46.8741 46.8485 46.824C46.8458 46.8174 46.8419 46.8121 46.8406 46.8068C46.8142 46.7501 46.7852 46.6973 46.7548 46.6459C46.7522 46.6446 46.7522 46.6406 46.7509 46.638C46.7192 46.5839 46.6862 46.5311 46.6506 46.4823C46.3406 46.0378 45.9092 45.7198 45.5478 45.4534C45.5372 45.4455 45.5293 45.4389 45.5201 45.4323C45.4225 45.3597 45.3275 45.2898 45.2404 45.2212L44.6824 45.9217C44.7616 45.985 44.8526 46.0509 44.9423 46.1182C44.9674 46.1367 44.9911 46.1552 45.0175 46.175C45.4357 46.4823 45.834 46.7831 46.0359 47.2131C46.0359 47.2145 46.0398 47.2197 46.0398 47.2237C46.0781 47.3055 46.1084 47.3952 46.1282 47.4888C46.1375 47.5324 46.1467 47.5772 46.1559 47.6221C46.1586 47.6577 46.1612 47.6894 46.1638 47.7237C46.1704 47.812 46.1718 47.9044 46.1625 48.002C46.0728 48.8819 45.5531 49.6444 44.755 49.5718L42.7841 47.9163L42.3105 48.4809L44.3381 50.1892Z" fill="#A8996E"/>
<path fill-rule="evenodd" clip-rule="evenodd" d="M29.4297 46.9898V47.1104H32.5882L30.8094 45.9604L29.4297 46.9898Z" fill="#A8996E"/>
<path fill-rule="evenodd" clip-rule="evenodd" d="M34.2412 47.1108H37.4571V46.9888L36.1248 46.0283L34.2412 47.1108Z" fill="#A8996E"/>
<path fill-rule="evenodd" clip-rule="evenodd" d="M33.1286 51.5612V47.6001H31.2148L33.1286 51.5612Z" fill="#A8996E"/>
<path fill-rule="evenodd" clip-rule="evenodd" d="M34.3828 51.0859L37.458 47.7566V47.6001H36.2248L34.3828 51.0859Z" fill="#A8996E"/>
<path fill-rule="evenodd" clip-rule="evenodd" d="M33.5703 47.5986V51.6516L35.7124 47.5986H33.5703Z" fill="#A8996E"/>
<path fill-rule="evenodd" clip-rule="evenodd" d="M43.7505 50.1658L42.3062 48.9512L41.9258 49.7853L42.9853 50.674L43.7505 50.1658Z" fill="#A8996E"/>
<path fill-rule="evenodd" clip-rule="evenodd" d="M31.4355 45.7969L33.3795 47.0517L35.5646 45.7969H31.4355Z" fill="#A8996E"/>
</svg>
