<svg width="38" height="49" viewBox="0 0 38 49" fill="none" xmlns="http://www.w3.org/2000/svg">
<path d="M11.1217 37.8143C10.1844 37.8143 9.31155 37.394 8.72729 36.6612L6.67619 34.0893L4.87162 33.2202L0.160073 42.6966C-0.076121 43.1718 -0.0495156 43.7355 0.230511 44.1862C0.509867 44.636 1.00187 44.9095 1.53121 44.9095H1.53465L5.90501 44.8997L8.53502 48.3901C8.82586 48.776 9.27978 48.9999 9.75772 48.9998C9.80461 48.9998 9.8517 48.9977 9.89888 48.9933C10.4274 48.9444 10.8929 48.6254 11.129 48.1502L15.9092 38.5357L14.4113 37.8143H11.1217Z" fill="#123449"/>
<path d="M37.2478 42.6966L32.5362 33.2202L30.7316 34.0893L28.6806 36.6613C28.0963 37.394 27.2236 37.8143 26.2862 37.8143H22.9965L21.4985 38.5357L26.2787 48.1502C26.515 48.6254 26.9805 48.9444 27.5089 48.9933C27.556 48.9976 27.6031 48.9998 27.65 48.9998C28.1279 48.9998 28.5819 48.776 28.8727 48.3901L31.5027 44.8997L35.8731 44.9095H35.8765C36.4059 44.9095 36.8979 44.6361 37.1772 44.1862C37.4573 43.7355 37.484 43.1718 37.2478 42.6966Z" fill="#123449"/>
<path d="M26.2865 36.2832C26.7525 36.2832 27.1932 36.071 27.4836 35.7067L29.7526 32.8615L33.0314 31.2825C33.4513 31.0802 33.7562 30.6979 33.8599 30.2436L34.6698 26.6956L36.9388 23.8504C37.2293 23.486 37.3381 23.0092 37.2344 22.5549L36.4247 19.007L37.2344 15.4591C37.338 15.0047 37.2293 14.528 36.9388 14.1635L34.6698 11.3184L33.8599 7.77039C33.7563 7.31609 33.4513 6.93376 33.0314 6.73154L29.7526 5.15254L27.4836 2.3073C27.1931 1.94296 26.7525 1.73078 26.2865 1.73078H22.6473L19.3684 0.151593C18.9485 -0.0505311 18.4595 -0.0505311 18.0396 0.151593L14.7608 1.73059H11.1216C10.6556 1.73059 10.2149 1.94277 9.92446 2.30711L7.65544 5.15235L4.37667 6.73135C3.95682 6.93357 3.65191 7.3159 3.54817 7.7702L2.73833 11.3182L0.469314 14.1633C0.178761 14.5277 0.0699471 15.0045 0.173689 15.4589L0.98343 19.0069L0.173689 22.5547C0.0700429 23.009 0.178761 23.4858 0.469314 23.8502L2.73833 26.6954L3.54817 30.2434C3.65181 30.6977 3.95682 31.08 4.37667 31.2823L7.65544 32.8613L9.92446 35.7065C10.215 36.0708 10.6556 36.283 11.1216 36.283H14.7608L18.0396 37.862C18.2495 37.9631 18.4767 38.0136 18.7039 38.0136C18.9311 38.0136 19.1584 37.9631 19.3683 37.862L22.6471 36.283H26.2863L26.2865 36.2832ZM18.704 32.4053C11.3162 32.4053 5.30565 26.3948 5.30565 19.007C5.30565 11.6191 11.3162 5.60856 18.704 5.60856C26.0919 5.60856 32.1024 11.6191 32.1024 19.007C32.1024 26.3948 26.0919 32.4053 18.704 32.4053Z" fill="#123449"/>
<path d="M18.7041 7.13965C12.1605 7.13965 6.83691 12.4632 6.83691 19.0068C6.83691 25.5504 12.1605 30.8739 18.7041 30.8739C25.2476 30.8739 30.5712 25.5504 30.5712 19.0068C30.5712 12.4632 25.2476 7.13965 18.7041 7.13965ZM19.0211 22.52C18.7239 22.8173 18.3318 22.9686 17.9381 22.9686C17.6011 22.9686 17.2629 22.8579 16.9819 22.6331L13.1538 19.5706L15.0669 17.1793L17.8247 19.3856L22.215 14.9953L24.3805 17.1608L19.0211 22.5201V22.52Z" fill="#123449"/>
</svg>
