<svg width="40" height="49" viewBox="0 0 40 49" fill="none" xmlns="http://www.w3.org/2000/svg">
<path d="M12.9816 43.7271H2.63461C1.18193 43.7271 0 44.909 0 46.3626C0 47.8153 1.18193 48.9972 2.63461 48.9972H17.6326C15.7081 47.6229 14.1109 45.819 12.9816 43.7271Z" fill="#123449"/>
<path d="M2.63461 40.8561H11.7892C11.3633 39.4456 11.1356 37.9517 11.1356 36.4052C11.1356 36.1305 11.1432 35.8578 11.1566 35.5869H2.63461C1.18193 35.5869 0 36.7688 0 38.2215C0 39.6743 1.18193 40.8561 2.63461 40.8561Z" fill="#123449"/>
<path d="M2.63461 32.7159H11.5806C12.0524 30.7943 12.8849 29.0114 14.0018 27.4458H2.63461C1.18194 27.4458 0 28.6277 0 30.0804C0 31.534 1.18194 32.7159 2.63461 32.7159Z" fill="#123449"/>
<path d="M2.63461 24.5748H16.6506C18.9579 22.6312 21.8394 21.3497 24.9994 21.0234C24.6262 20.0215 23.6597 19.3057 22.5294 19.3057H2.63461C1.18193 19.3057 0 20.4876 0 21.9403C0 23.3929 1.18193 24.5748 2.63461 24.5748Z" fill="#123449"/>
<path d="M17.7588 27.4458C16.2917 28.8937 15.1777 30.6976 14.5576 32.7159C11.9756 41.1162 18.6416 49.5279 27.3755 48.9742C33.9596 48.5722 39.1924 43.0887 39.1924 36.4051C39.1925 25.4018 25.8065 19.4988 17.7588 27.4458ZM31.1441 39.8044C30.8847 41.348 29.7594 42.9126 27.9985 43.4926V43.8754C27.9985 44.721 27.2677 45.3763 26.4607 45.307C25.7161 45.2544 25.1276 44.6342 25.1276 43.8754V43.6601C24.1835 43.5352 23.4519 43.1897 22.6423 42.6591C22.4882 42.5586 22.36 42.4332 22.2595 42.2916C21.3732 41.0513 22.7837 39.4753 24.1112 40.1948H24.1122C24.8723 40.597 24.8576 40.8695 26.5162 40.8561C26.9086 40.8533 27.2416 40.7432 27.5095 40.5681V40.5671C28.4401 39.9598 28.8456 38.2904 27.3343 37.7555C26.116 37.3262 24.0111 36.5376 23.1753 35.5486H23.1743C21.4832 33.6034 22.465 30.1007 25.1275 29.3234C25.1275 28.9548 25.0424 28.1699 25.8309 27.7004C26.6405 27.2199 27.9985 27.5372 27.9985 29.2545C28.3293 29.3418 28.7766 29.5204 29.224 29.727C30.1116 30.1369 30.3435 31.2918 29.6807 32.0104C29.2549 32.4721 28.5784 32.6038 28.0101 32.3365C27.5729 32.1309 26.9642 31.7642 25.9725 32.0662C25.1662 32.3102 25.0535 33.4487 25.3763 33.6997C26.0751 34.2508 27.4456 34.7493 28.2913 35.0481C30.3527 35.7775 31.5001 37.6886 31.1441 39.8044Z" fill="#123449"/>
<path d="M6.74875 9.76829H8.52969C9.17569 9.76829 9.69919 10.2918 9.69919 10.9377V15.2652C9.69919 15.9112 10.2227 16.4346 10.8676 16.4346H14.2965C14.9415 16.4346 15.465 15.9111 15.465 15.2652V10.9377C15.465 10.2917 15.9885 9.76829 16.6344 9.76829H18.4154C19.3494 9.76829 19.9063 8.72608 19.3867 7.94906L13.5539 0.518951C13.0907 -0.172984 12.0735 -0.172984 11.6103 0.518951L5.77746 7.94906C5.25779 8.72608 5.81478 9.76829 6.74875 9.76829Z" fill="#123449"/>
</svg>
